<?xml version="1.0" encoding="UTF-8"?><svg version="1.1" width="46px" height="46px" viewBox="0 0 46.0 46.0" xmlns="http://www.w3.org/2000/svg" xmlns:xlink="http://www.w3.org/1999/xlink"><defs><clipPath id="i0"><path d="M30,0 C38.836556,-1.623249e-15 46,7.163444 46,16 L46,30 C46,38.836556 38.836556,46 30,46 L16,46 C7.163444,46 1.082166e-15,38.836556 0,30 L0,16 C-1.082166e-15,7.163444 7.163444,1.623249e-15 16,0 L30,0 Z"></path></clipPath><clipPath id="i1"><path d="M11,0 L22,4 L11,8 L0,4 L11,0 Z"></path></clipPath><clipPath id="i2"><path d="M11,0 L0,17 L0,4.25 L11,0 Z"></path></clipPath><clipPath id="i3"><path d="M0,0 L11,4.25 L11,17 L0,0 Z"></path></clipPath></defs><g clip-path="url(#i0)"><path d="M16,0 L30,0 C38.836556,-1.623249e-15 46,7.163444 46,16 L46,30 C46,38.836556 38.836556,46 30,46 L16,46 C7.163444,46 1.082166e-15,38.836556 0,30 L0,16 C-1.082166e-15,7.163444 7.163444,1.623249e-15 16,0 Z" stroke="#07A0EC" stroke-width="6" fill="none" stroke-miterlimit="5"></path></g><g transform="translate(12.0 13.0)"><g clip-path="url(#i1)"><polygon points="0,0 22,0 22,8 0,8 0,0" stroke="none" fill="#44AEF5"></polygon></g><g transform="translate(11.0 4.0)"><g clip-path="url(#i2)"><polygon points="0,0 11,0 11,17 0,17 0,0" stroke="none" fill="#44AEF5" opacity="60%"></polygon></g></g><g transform="translate(0.0 4.0)"><g clip-path="url(#i3)"><polygon points="0,0 11,0 11,17 0,17 0,0" stroke="none" fill="#44AEF5" opacity="80%"></polygon></g></g></g></svg>