<?xml version="1.0" encoding="UTF-8"?>
<svg width="32px" height="45px" viewBox="0 0 32 45" version="1.1" xmlns="http://www.w3.org/2000/svg" xmlns:xlink="http://www.w3.org/1999/xlink">
    <title>Cripto</title>
    <g id="----Symbols" stroke="none" stroke-width="1" fill="none" fill-rule="evenodd">
        <g id="Cripto" transform="translate(-9.000000, -2.000000)">
            <rect id="Rectangle" x="0" y="0" width="50" height="50"></rect>
            <g id="currency_bitcoin_FILL0_wght400_GRAD0_opsz40" transform="translate(9.135236, 2.499670)" fill="#07A0EC" fill-rule="nonzero">
                <path d="M7.73425674,44.1666667 L7.73425674,38.8298611 L0,38.8298611 L0,34.78125 L5.29793663,34.78125 L5.29793663,9.38541667 L0,9.38541667 L0,5.33680556 L7.73425674,5.33680556 L7.73425674,0 L11.7533811,0 L11.7533811,5.33680556 L17.8419891,5.33680556 L17.8419891,0 L21.9224964,0 L21.9224964,5.52083333 C26.1856291,6.50374931 29.2138466,10.3167923 29.2299952,14.7222222 C29.2264171,15.8868337 29.0094003,17.0407696 28.5898583,18.126 C28.1752158,19.2329974 27.5440265,20.2448024 26.7337536,21.1013611 C28.210158,21.9357718 29.4475796,23.1401809 30.32612,24.5978889 C32.5352197,28.285865 31.9700804,33.0149401 28.9552333,36.0694444 C27.2305371,37.8755362 24.836646,38.8758629 22.3492543,38.8298611 L21.9224964,38.8298611 L21.9224964,44.1666667 L17.8419891,44.1666667 L17.8419891,38.8298611 L11.7533811,38.8298611 L11.7533811,44.1666667 L7.73425674,44.1666667 Z M9.31706098,20.0590278 L19.9129342,20.0590278 C21.3142268,20.0844526 22.6618838,19.516762 23.6280666,18.4940556 C25.6567538,16.3947008 25.6567538,13.0497436 23.6280666,10.9503889 C22.6618838,9.92768249 21.3142268,9.35999187 19.9129342,9.38541667 L9.31706098,9.38541667 L9.31706098,20.0590278 Z M9.31706098,34.78125 L22.3492543,34.78125 C23.7501453,34.806806 25.0974015,34.2390608 26.0629252,33.2162778 C28.0931554,31.1175549 28.0931554,27.771334 26.0629252,25.6726111 C25.0974015,24.6498281 23.7501453,24.0820829 22.3492543,24.1076389 L9.31706098,24.1076389 L9.31706098,34.78125 Z"></path>
            </g>
        </g>
    </g>
</svg>