<?xml version="1.0" encoding="UTF-8"?>
<svg width="15px" height="17px" viewBox="0 0 15 17" version="1.1" xmlns="http://www.w3.org/2000/svg" xmlns:xlink="http://www.w3.org/1999/xlink">
    <title>Delete</title>
    <g id="⌽-Создать-проект" stroke="none" stroke-width="1" fill="none" fill-rule="evenodd">
        <g id="Style-guide" transform="translate(-1337.000000, -1665.000000)" fill="#787878" fill-rule="nonzero">
            <path d="M1340.82812,1681.57812 L1347.61719,1681.57812 C1348.16406,1681.57812 1348.60547,1681.41667 1348.94141,1681.09375 C1349.27734,1680.77083 1349.46094,1680.33333 1349.49219,1679.78125 L1349.99219,1669.09375 L1350.84375,1669.09375 C1351.01042,1669.09375 1351.15234,1669.03516 1351.26953,1668.91797 C1351.38672,1668.80078 1351.44531,1668.65365 1351.44531,1668.47656 C1351.44531,1668.3099 1351.38672,1668.16797 1351.26953,1668.05078 C1351.15234,1667.93359 1351.01042,1667.875 1350.84375,1667.875 L1337.60156,1667.875 C1337.4401,1667.875 1337.29948,1667.93359 1337.17969,1668.05078 C1337.0599,1668.16797 1337,1668.3099 1337,1668.47656 C1337,1668.65365 1337.0599,1668.80078 1337.17969,1668.91797 C1337.29948,1669.03516 1337.4401,1669.09375 1337.60156,1669.09375 L1338.45312,1669.09375 L1338.95312,1679.78906 C1338.98438,1680.34115 1339.16797,1680.77734 1339.50391,1681.09766 C1339.83984,1681.41797 1340.28125,1681.57812 1340.82812,1681.57812 Z M1340.96094,1680.35156 C1340.7526,1680.35156 1340.57943,1680.28255 1340.44141,1680.14453 C1340.30339,1680.00651 1340.22917,1679.83073 1340.21875,1679.61719 L1339.71094,1669.09375 L1348.70312,1669.09375 L1348.22656,1679.61719 C1348.21615,1679.83594 1348.14193,1680.01302 1348.00391,1680.14844 C1347.86589,1680.28385 1347.6901,1680.35156 1347.47656,1680.35156 L1340.96094,1680.35156 Z M1342.03906,1679.125 C1342.1849,1679.125 1342.30339,1679.08203 1342.39453,1678.99609 C1342.48568,1678.91016 1342.52865,1678.79948 1342.52344,1678.66406 L1342.29688,1670.84375 C1342.29167,1670.70312 1342.24479,1670.59115 1342.15625,1670.50781 C1342.06771,1670.42448 1341.95312,1670.38281 1341.8125,1670.38281 C1341.66146,1670.38281 1341.54297,1670.42578 1341.45703,1670.51172 C1341.37109,1670.59766 1341.32812,1670.71094 1341.32812,1670.85156 L1341.55469,1678.66406 C1341.5599,1678.80469 1341.60547,1678.91667 1341.69141,1679 C1341.77734,1679.08333 1341.89323,1679.125 1342.03906,1679.125 Z M1344.22656,1679.125 C1344.3724,1679.125 1344.49089,1679.08333 1344.58203,1679 C1344.67318,1678.91667 1344.71875,1678.80469 1344.71875,1678.66406 L1344.71875,1670.84375 C1344.71875,1670.70833 1344.67318,1670.59766 1344.58203,1670.51172 C1344.49089,1670.42578 1344.3724,1670.38281 1344.22656,1670.38281 C1344.08073,1670.38281 1343.96094,1670.42578 1343.86719,1670.51172 C1343.77344,1670.59766 1343.72656,1670.70833 1343.72656,1670.84375 L1343.72656,1678.66406 C1343.72656,1678.80469 1343.77344,1678.91667 1343.86719,1679 C1343.96094,1679.08333 1344.08073,1679.125 1344.22656,1679.125 Z M1346.40625,1679.125 C1346.55208,1679.125 1346.66797,1679.08333 1346.75391,1679 C1346.83984,1678.91667 1346.88542,1678.80729 1346.89062,1678.67188 L1347.11719,1670.85156 C1347.11719,1670.71094 1347.07422,1670.59766 1346.98828,1670.51172 C1346.90234,1670.42578 1346.78385,1670.38281 1346.63281,1670.38281 C1346.49219,1670.38281 1346.3776,1670.42448 1346.28906,1670.50781 C1346.20052,1670.59115 1346.15365,1670.70573 1346.14844,1670.85156 L1345.92188,1678.66406 C1345.92188,1678.79948 1345.96615,1678.91016 1346.05469,1678.99609 C1346.14323,1679.08203 1346.26042,1679.125 1346.40625,1679.125 Z M1340.92188,1668.39062 L1342.19531,1668.39062 L1342.19531,1666.82812 C1342.19531,1666.63021 1342.26042,1666.47135 1342.39062,1666.35156 C1342.52083,1666.23177 1342.6901,1666.17188 1342.89844,1666.17188 L1345.53125,1666.17188 C1345.74479,1666.17188 1345.91536,1666.23177 1346.04297,1666.35156 C1346.17057,1666.47135 1346.23438,1666.63021 1346.23438,1666.82812 L1346.23438,1668.39062 L1347.51562,1668.39062 L1347.51562,1666.76562 C1347.51562,1666.21354 1347.34766,1665.78125 1347.01172,1665.46875 C1346.67578,1665.15625 1346.21094,1665 1345.61719,1665 L1342.8125,1665 C1342.22396,1665 1341.76172,1665.15625 1341.42578,1665.46875 C1341.08984,1665.78125 1340.92188,1666.21354 1340.92188,1666.76562 L1340.92188,1668.39062 Z" id="Delete"></path>
        </g>
    </g>
</svg>