<?xml version="1.0" encoding="UTF-8"?><svg version="1.1" width="32px" height="32px" viewBox="0 0 32.0 32.0" xmlns="http://www.w3.org/2000/svg" xmlns:xlink="http://www.w3.org/1999/xlink"><defs><clipPath id="i0"><path d="M1920,0 L1920,2221 L0,2221 L0,0 L1920,0 Z"></path></clipPath><clipPath id="i1"><path d="M9,0 C13.9705627,0 18,4.02943725 18,9 C18,13.9705627 13.9705627,18 9,18 C4.02943725,18 0,13.9705627 0,9 C0,4.02943725 4.02943725,0 9,0 Z"></path></clipPath><clipPath id="i2"><path d="M6,0 L6,4 L10,4 L10,6 L5.999,6 L6,10 L4,10 L3.999,6 L0,6 L0,4 L4,4 L4,0 L6,0 Z"></path></clipPath></defs><g transform="translate(-389.0 -1945.0)"><g clip-path="url(#i0)"><g transform="translate(270.0 1760.0)"><g transform="translate(119.0 185.0)"><g transform="translate(7.0 7.0)"><g clip-path="url(#i1)"><polygon points="0,0 18,0 18,18 0,18 0,0" stroke="none" fill="#D7D7D7"></polygon><path d="M9,18 C13.9705627,18 18,13.9705627 18,9 C18,4.02943725 13.9705627,0 9,0 C4.02943725,0 0,4.02943725 0,9 C0,13.9705627 4.02943725,18 9,18 Z" stroke="#B7B7B7" stroke-width="1" fill="none" stroke-miterlimit="5"></path></g></g><g transform="translate(16.0 8.928932188134524) rotate(45.00000000000001)"><g clip-path="url(#i2)"><polygon points="0,0 10,0 10,10 0,10 0,0" stroke="none" fill="#4B4B4B"></polygon></g></g></g></g></g></g></svg>