<?xml version="1.0" encoding="UTF-8"?>
<svg width="15px" height="18px" viewBox="0 0 15 18" version="1.1" xmlns="http://www.w3.org/2000/svg" xmlns:xlink="http://www.w3.org/1999/xlink">
    <title>Delete</title>
    <g id="⌽-Создать-проект" stroke="none" stroke-width="1" fill="none" fill-rule="evenodd">
        <g id="Вознаграждения_tablet" transform="translate(-393.000000, -1801.000000)" fill="#787878" fill-rule="nonzero">
            <g id="Group-10" transform="translate(40.000000, 590.000000)">
                <g id="Group" transform="translate(353.000000, 1208.000000)">
                    <g id="Delete" transform="translate(0.000000, 3.710938)">
                        <path d="M3.83342841,16.578125 L10.6318963,16.578125 C11.179529,16.578125 11.6215467,16.4166667 11.9579496,16.09375 C12.2943525,15.7708333 12.4782006,15.3333333 12.5094939,14.78125 L13.0101866,4.09375 L13.8629289,4.09375 C14.0298264,4.09375 14.1719501,4.03515625 14.2893,3.91796875 C14.4066498,3.80078125 14.4653247,3.65364583 14.4653247,3.4765625 C14.4653247,3.30989583 14.4066498,3.16796875 14.2893,3.05078125 C14.1719501,2.93359375 14.0298264,2.875 13.8629289,2.875 L0.602395893,2.875 C0.440713878,2.875 0.299894059,2.93359375 0.179936435,3.05078125 C0.0599788118,3.16796875 0,3.30989583 0,3.4765625 C0,3.65364583 0.0599788118,3.80078125 0.179936435,3.91796875 C0.299894059,4.03515625 0.440713878,4.09375 0.602395893,4.09375 L1.45513813,4.09375 L1.95583082,14.7890625 C1.98712411,15.3411458 2.17097221,15.7773438 2.50737511,16.0976562 C2.84377801,16.4179688 3.28579578,16.578125 3.83342841,16.578125 Z M3.9664249,15.3515625 C3.75780295,15.3515625 3.58438595,15.2825521 3.44617391,15.1445312 C3.30796186,15.0065104 3.23364029,14.8307292 3.22320919,14.6171875 L2.71469318,4.09375 L11.7193383,4.09375 L11.2421156,14.6171875 C11.2316845,14.8359375 11.1573629,15.0130208 11.0191508,15.1484375 C10.8809388,15.2838542 10.704914,15.3515625 10.4910765,15.3515625 L3.9664249,15.3515625 Z M5.04604352,14.125 C5.19207889,14.125 5.31073262,14.0820312 5.40200473,13.9960938 C5.49327683,13.9101562 5.53630511,13.7994792 5.53108956,13.6640625 L5.30421319,5.84375 C5.29899764,5.703125 5.2520577,5.59114583 5.16339337,5.5078125 C5.07472904,5.42447917 4.95998696,5.3828125 4.81916714,5.3828125 C4.66791623,5.3828125 4.54926249,5.42578125 4.46320593,5.51171875 C4.37714938,5.59765625 4.3341211,5.7109375 4.3341211,5.8515625 L4.56099747,13.6640625 C4.56621302,13.8046875 4.61184908,13.9166667 4.69790563,14 C4.78396219,14.0833333 4.90000815,14.125 5.04604352,14.125 Z M7.23657404,14.125 C7.3826094,14.125 7.50126314,14.0833333 7.59253525,14 C7.68380735,13.9166667 7.7294434,13.8046875 7.7294434,13.6640625 L7.7294434,5.84375 C7.7294434,5.70833333 7.68380735,5.59765625 7.59253525,5.51171875 C7.50126314,5.42578125 7.3826094,5.3828125 7.23657404,5.3828125 C7.09053867,5.3828125 6.97058104,5.42578125 6.87670117,5.51171875 C6.78282129,5.59765625 6.73588135,5.70833333 6.73588135,5.84375 L6.73588135,13.6640625 C6.73588135,13.8046875 6.78282129,13.9166667 6.87670117,14 C6.97058104,14.0833333 7.09053867,14.125 7.23657404,14.125 Z M9.41928123,14.125 C9.5653166,14.125 9.68136256,14.0833333 9.76741912,14 C9.85347567,13.9166667 9.89911173,13.8072917 9.90432728,13.671875 L10.1312037,5.8515625 C10.1312037,5.7109375 10.0881754,5.59765625 10.0021188,5.51171875 C9.91606226,5.42578125 9.79740852,5.3828125 9.64615761,5.3828125 C9.50533779,5.3828125 9.39059571,5.42447917 9.30193138,5.5078125 C9.21326705,5.59114583 9.16632711,5.70572917 9.16111156,5.8515625 L8.93423519,13.6640625 C8.93423519,13.7994792 8.97856735,13.9101562 9.06723168,13.9960938 C9.15589601,14.0820312 9.27324586,14.125 9.41928123,14.125 Z M3.92730829,3.390625 L5.20250998,3.390625 L5.20250998,1.828125 C5.20250998,1.63020833 5.26770434,1.47135417 5.39809306,1.3515625 C5.52848179,1.23177083 5.69798712,1.171875 5.90660908,1.171875 L8.54306902,1.171875 C8.75690653,1.171875 8.92771575,1.23177083 9.0554967,1.3515625 C9.18327765,1.47135417 9.24716812,1.63020833 9.24716812,1.828125 L9.24716812,3.390625 L10.5301931,3.390625 L10.5301931,1.765625 C10.5301931,1.21354167 10.3619917,0.78125 10.0255888,0.46875 C9.68918589,0.15625 9.22369815,0 8.62912558,0 L5.82055252,0 C5.2311955,0 4.76831554,0.15625 4.43191264,0.46875 C4.09550974,0.78125 3.92730829,1.21354167 3.92730829,1.765625 L3.92730829,3.390625 Z" id="Shape"></path>
                    </g>
                </g>
            </g>
        </g>
    </g>
</svg>