<?xml version="1.0" encoding="UTF-8"?>
<svg width="17px" height="17px" viewBox="0 0 17 17" version="1.1" xmlns="http://www.w3.org/2000/svg" xmlns:xlink="http://www.w3.org/1999/xlink">
    <title>Edit</title>
    <g id="⌽-Создать-проект" stroke="none" stroke-width="1" fill="none" fill-rule="evenodd">
        <g id="Style-guide" transform="translate(-1437.000000, -1665.000000)" fill="#787878" fill-rule="nonzero">
            <path d="M1445.33838,1681.68799 C1446.43962,1681.68799 1447.47721,1681.47632 1448.45117,1681.05298 C1449.42513,1680.62964 1450.28288,1680.0472 1451.02441,1679.30566 C1451.76595,1678.56413 1452.34701,1677.70776 1452.76758,1676.73657 C1453.18815,1675.76538 1453.39844,1674.7264 1453.39844,1673.61963 C1453.39844,1672.51839 1453.18677,1671.48079 1452.76343,1670.50684 C1452.34009,1669.53288 1451.75765,1668.67375 1451.01611,1667.92944 C1450.27458,1667.18514 1449.41683,1666.60409 1448.44287,1666.18628 C1447.46891,1665.76847 1446.43132,1665.55957 1445.33008,1665.55957 C1444.22884,1665.55957 1443.19263,1665.76847 1442.22144,1666.18628 C1441.25024,1666.60409 1440.3925,1667.18514 1439.64819,1667.92944 C1438.90389,1668.67375 1438.32145,1669.53288 1437.90088,1670.50684 C1437.48031,1671.48079 1437.27002,1672.51839 1437.27002,1673.61963 C1437.27002,1674.7264 1437.48169,1675.76538 1437.90503,1676.73657 C1438.32837,1677.70776 1438.91081,1678.56413 1439.65234,1679.30566 C1440.39388,1680.0472 1441.25024,1680.62964 1442.22144,1681.05298 C1443.19263,1681.47632 1444.23161,1681.68799 1445.33838,1681.68799 Z M1445.33838,1680.21045 C1444.42529,1680.21045 1443.57031,1680.04028 1442.77344,1679.69995 C1441.97656,1679.35962 1441.27653,1678.88786 1440.67334,1678.28467 C1440.07015,1677.68148 1439.59977,1676.98145 1439.26221,1676.18457 C1438.92464,1675.3877 1438.75586,1674.53271 1438.75586,1673.61963 C1438.75586,1672.70654 1438.92464,1671.85156 1439.26221,1671.05469 C1439.59977,1670.25781 1440.07015,1669.55778 1440.67334,1668.95459 C1441.27653,1668.3514 1441.97518,1667.88102 1442.76929,1667.54346 C1443.5634,1667.20589 1444.41699,1667.03711 1445.33008,1667.03711 C1446.24316,1667.03711 1447.09814,1667.20589 1447.89502,1667.54346 C1448.69189,1667.88102 1449.39193,1668.3514 1449.99512,1668.95459 C1450.59831,1669.55778 1451.07007,1670.25781 1451.4104,1671.05469 C1451.75073,1671.85156 1451.9209,1672.70654 1451.9209,1673.61963 C1451.92643,1674.53271 1451.75903,1675.3877 1451.4187,1676.18457 C1451.07837,1676.98145 1450.60799,1677.68148 1450.00757,1678.28467 C1449.40715,1678.88786 1448.70711,1679.35962 1447.90747,1679.69995 C1447.10783,1680.04028 1446.25146,1680.21045 1445.33838,1680.21045 Z M1442.86475,1677.00635 L1447.94482,1671.93457 L1446.98193,1670.96338 L1441.91016,1676.03516 L1441.46191,1677.08105 C1441.42318,1677.1862 1441.44255,1677.27751 1441.52002,1677.35498 C1441.59749,1677.43245 1441.68327,1677.45182 1441.77734,1677.41309 L1442.86475,1677.00635 Z M1448.41797,1671.46973 L1448.98242,1670.89697 C1449.11523,1670.76416 1449.18579,1670.62581 1449.19409,1670.48193 C1449.20239,1670.33805 1449.1429,1670.20247 1449.01562,1670.0752 L1448.84131,1669.90088 C1448.71956,1669.7736 1448.58537,1669.71549 1448.43872,1669.72656 C1448.29207,1669.73763 1448.15511,1669.8068 1448.02783,1669.93408 L1447.45508,1670.49854 L1448.41797,1671.46973 Z" id="Edit"></path>
        </g>
    </g>
</svg>