<?xml version="1.0" encoding="UTF-8"?>
<svg width="38px" height="33px" viewBox="0 0 38 33" version="1.1" xmlns="http://www.w3.org/2000/svg" xmlns:xlink="http://www.w3.org/1999/xlink">
    <title>Error_icon</title>
    <g id="⌽-Создать-проект" stroke="none" stroke-width="1" fill="none" fill-rule="evenodd">
        <g id="Счёт_авторизация_авторизован_ошибка-при-отправке" transform="translate(-1229.000000, -1225.000000)" fill="#DC3545" fill-rule="nonzero">
            <path d="M1249.52084,1225.42291 C1249.94242,1225.67638 1250.29491,1226.03123 1250.54668,1226.45564 L1266.57991,1253.48225 C1267.41997,1254.89831 1266.96069,1256.73184 1265.55407,1257.57754 C1265.09423,1257.85402 1264.56861,1258 1264.033,1258 L1231.96654,1258 C1230.32817,1258 1229,1256.66291 1229,1255.01353 C1229,1254.47433 1229.14501,1253.94518 1229.41964,1253.48225 L1245.45287,1226.45564 C1246.29293,1225.03958 1248.11422,1224.57721 1249.52084,1225.42291 Z M1247.21565,1227.38026 L1247.1508,1227.47649 L1231.11758,1254.50311 C1231.02603,1254.65742 1230.9777,1254.8338 1230.9777,1255.01353 C1230.9777,1255.52406 1231.35943,1255.94482 1231.85122,1256.00233 L1231.96654,1256.00902 L1264.033,1256.00902 C1264.21154,1256.00902 1264.38674,1255.96036 1264.54002,1255.8682 C1264.97541,1255.60644 1265.13851,1255.06076 1264.93539,1254.60621 L1264.88197,1254.50311 L1248.84874,1227.47649 C1248.7858,1227.37039 1248.70397,1227.27733 1248.60771,1227.20179 L1248.5068,1227.13225 C1248.07141,1226.87049 1247.51685,1226.98468 1247.21565,1227.38026 Z M1247.99983,1248.95247 C1248.4003,1248.95247 1248.74638,1249.10273 1249.03808,1249.40326 C1249.32978,1249.70378 1249.4781,1250.06467 1249.48305,1250.48592 C1249.4781,1250.76846 1249.40765,1251.0266 1249.27169,1251.26035 C1249.13573,1251.49409 1248.95651,1251.68031 1248.73402,1251.81901 C1248.51154,1251.95772 1248.26681,1252.02707 1247.99983,1252.02707 C1247.58948,1252.02707 1247.23845,1251.87681 1246.94676,1251.57628 C1246.65506,1251.27576 1246.51168,1250.9123 1246.51662,1250.48592 C1246.51168,1250.06467 1246.65506,1249.70378 1246.94676,1249.40326 C1247.23845,1249.10273 1247.58948,1248.95247 1247.99983,1248.95247 Z M1249.21607,1236.09925 L1249.02325,1247.34196 L1246.969,1247.34196 L1246.77619,1236.09925 L1249.21607,1236.09925 Z" id="Error_icon"></path>
        </g>
    </g>
</svg>