<?xml version="1.0" encoding="UTF-8"?>
<svg width="19px" height="17px" viewBox="0 0 19 17" version="1.1" xmlns="http://www.w3.org/2000/svg" xmlns:xlink="http://www.w3.org/1999/xlink">
    <title>Error_icon Copy</title>
    <g id="⌽-Создать-проект" stroke="none" stroke-width="1" fill="none" fill-rule="evenodd">
        <g id="Счёт_авторизация_авторизован_ошибка-при-отправке" transform="translate(-952.000000, -247.000000)" fill="#DC3545" fill-rule="nonzero">
            <g id="Group-2" transform="translate(277.000000, 204.000000)">
                <path d="M685.260421,43.2178642 C685.47121,43.3484374 685.647453,43.5312404 685.77334,43.7498746 L693.789954,57.6726746 C694.209986,58.4021619 693.980344,59.3467053 693.277035,59.7823713 C693.047114,59.9247967 692.784305,60 692.516501,60 L676.483272,60 C675.664084,60 675,59.311198 675,58.4615177 C675,58.1837452 675.072505,57.9111544 675.209819,57.6726746 L683.226433,43.7498746 C683.646465,43.0203873 684.557112,42.7821981 685.260421,43.2178642 Z M684.107823,44.2261926 L684.075402,44.27577 L676.058788,58.19857 C676.013016,58.2780633 675.988848,58.3689269 675.988848,58.4615177 C675.988848,58.724514 676.179716,58.9412715 676.425612,58.970895 L676.483272,58.9743452 L692.516501,58.9743452 C692.605769,58.9743452 692.693372,58.9492774 692.770012,58.9018023 C692.987703,58.7669533 693.069255,58.4858453 692.967694,58.2516855 L692.940985,58.19857 L684.924371,44.27577 C684.892899,44.2211115 684.851986,44.1731713 684.803854,44.1342555 L684.753398,44.0984332 C684.535707,43.9635842 684.258424,44.0224113 684.107823,44.2261926 Z M684.499917,55.3391505 C684.700151,55.3391505 684.873192,55.4165584 685.019041,55.5713742 C685.16489,55.72619 685.239051,55.9121014 685.241523,56.1291082 C685.239051,56.2746615 685.203824,56.4076443 685.135844,56.5280566 C685.067863,56.6484689 684.978253,56.7444018 684.867012,56.8158553 C684.755771,56.8873087 684.633406,56.9230355 684.499917,56.9230355 C684.29474,56.9230355 684.119227,56.8456276 683.973378,56.6908117 C683.827529,56.5359959 683.75584,56.3487614 683.758312,56.1291082 C683.75584,55.9121014 683.827529,55.72619 683.973378,55.5713742 C684.119227,55.4165584 684.29474,55.3391505 684.499917,55.3391505 Z M685.108034,48.7177967 L685.011625,54.5094964 L683.984502,54.5094964 L683.888093,48.7177967 L685.108034,48.7177967 Z" id="Error_icon-Copy"></path>
            </g>
        </g>
    </g>
</svg>