<?xml version="1.0" encoding="UTF-8"?><svg version="1.1" width="38px" height="33px" viewBox="0 0 38.0 33.0" xmlns="http://www.w3.org/2000/svg" xmlns:xlink="http://www.w3.org/1999/xlink"><defs><clipPath id="i0"><path d="M1920,0 L1920,1626 L0,1626 L0,0 L1920,0 Z"></path></clipPath><clipPath id="i1"><path d="M20.5208425,0.422912784 C20.9424193,0.676378511 21.2949051,1.03123127 21.5466801,1.455639 L37.5799082,28.4822507 C38.4199717,29.8983143 37.9606886,31.7318397 36.5540706,32.5775443 C36.0942272,32.8540172 35.5686099,33 35.033001,33 L2.96654488,33 C1.32816738,33 0,31.6629138 0,30.0135344 C0,29.4743289 0.145009036,28.945182 0.41963774,28.4822507 L16.4528658,1.455639 C17.2929293,0.0395754253 19.1142245,-0.422791851 20.5208425,0.422912784 Z M18.2156452,2.38025625 L18.1508039,2.4764948 L2.11757583,29.5031065 C2.02603293,29.657417 1.97769658,29.8337992 1.97769658,30.0135344 C1.97769658,30.5240566 2.35943177,30.9448211 2.85122427,31.0023256 L2.96654488,31.0090229 L35.033001,31.0090229 C35.2115373,31.0090229 35.3867431,30.960362 35.5400242,30.8682044 C35.975406,30.6064387 36.1385095,30.0607585 35.9353881,29.6062131 L35.8819701,29.5031065 L19.848742,2.4764948 C19.7857982,2.37039287 19.7039712,2.27733249 19.6077075,2.20179006 L19.5067961,2.13225273 C19.0714144,1.87048701 18.5168482,1.98468073 18.2156452,2.38025625 Z M18.9998348,23.9524686 C19.4003016,23.9524686 19.7463841,24.102731 20.0380822,24.4032558 C20.3297803,24.7037807 20.4781014,25.0646673 20.4830454,25.4859158 C20.4781014,25.7684606 20.4076489,26.0266037 20.2716879,26.2603452 C20.1357269,26.4940868 19.9565056,26.6803094 19.734024,26.8190132 C19.5115424,26.957717 19.2668127,27.0270688 18.9998348,27.0270688 C18.5894798,27.0270688 18.2384533,26.8768064 17.9467552,26.5762816 C17.6550571,26.2757568 17.5116801,25.9123015 17.5166241,25.4859158 C17.5116801,25.0646673 17.6550571,24.7037807 17.9467552,24.4032558 C18.2384533,24.102731 18.5894798,23.9524686 18.9998348,23.9524686 Z M20.2160675,11.0992524 L20.0232501,22.3419637 L17.9690034,22.3419637 L17.776186,11.0992524 L20.2160675,11.0992524 Z"></path></clipPath></defs><g transform="translate(-1229.0 -1225.0)"><g clip-path="url(#i0)"><g transform="translate(1229.0 1225.0)"><g clip-path="url(#i1)"><polygon points="0,-1.10134124e-13 38,-1.10134124e-13 38,33 0,33 0,-1.10134124e-13" stroke="none" fill="#DC3544"></polygon></g></g></g></g></svg>