<?xml version="1.0" encoding="UTF-8"?>
<svg width="19px" height="17px" viewBox="0 0 19 17" version="1.1" xmlns="http://www.w3.org/2000/svg" xmlns:xlink="http://www.w3.org/1999/xlink">
    <title>Error_icon</title>
    <g id="⌽-Создать-проект" stroke="none" stroke-width="1" fill="none" fill-rule="evenodd">
        <g id="Счёт_авторизация_авторизован_ошибка-при-отправке" transform="translate(-402.000000, -247.000000)" fill="#DC3545" fill-rule="nonzero">
            <g id="Group-2" transform="translate(277.000000, 204.000000)">
                <path d="M135.260421,43.2178642 C135.47121,43.3484374 135.647453,43.5312404 135.77334,43.7498746 L143.789954,57.6726746 C144.209986,58.4021619 143.980344,59.3467053 143.277035,59.7823713 C143.047114,59.9247967 142.784305,60 142.516501,60 L126.483272,60 C125.664084,60 125,59.311198 125,58.4615177 C125,58.1837452 125.072505,57.9111544 125.209819,57.6726746 L133.226433,43.7498746 C133.646465,43.0203873 134.557112,42.7821981 135.260421,43.2178642 Z M134.107823,44.2261926 L134.075402,44.27577 L126.058788,58.19857 C126.013016,58.2780633 125.988848,58.3689269 125.988848,58.4615177 C125.988848,58.724514 126.179716,58.9412715 126.425612,58.970895 L126.483272,58.9743452 L142.516501,58.9743452 C142.605769,58.9743452 142.693372,58.9492774 142.770012,58.9018023 C142.987703,58.7669533 143.069255,58.4858453 142.967694,58.2516855 L142.940985,58.19857 L134.924371,44.27577 C134.892899,44.2211115 134.851986,44.1731713 134.803854,44.1342555 L134.753398,44.0984332 C134.535707,43.9635842 134.258424,44.0224113 134.107823,44.2261926 Z M134.499917,55.3391505 C134.700151,55.3391505 134.873192,55.4165584 135.019041,55.5713742 C135.16489,55.72619 135.239051,55.9121014 135.241523,56.1291082 C135.239051,56.2746615 135.203824,56.4076443 135.135844,56.5280566 C135.067863,56.6484689 134.978253,56.7444018 134.867012,56.8158553 C134.755771,56.8873087 134.633406,56.9230355 134.499917,56.9230355 C134.29474,56.9230355 134.119227,56.8456276 133.973378,56.6908117 C133.827529,56.5359959 133.75584,56.3487614 133.758312,56.1291082 C133.75584,55.9121014 133.827529,55.72619 133.973378,55.5713742 C134.119227,55.4165584 134.29474,55.3391505 134.499917,55.3391505 Z M135.108034,48.7177967 L135.011625,54.5094964 L133.984502,54.5094964 L133.888093,48.7177967 L135.108034,48.7177967 Z" id="Error_icon"></path>
            </g>
        </g>
    </g>
</svg>