<?xml version="1.0" encoding="UTF-8"?>
<svg width="354px" height="79px" viewBox="0 0 354 79" version="1.1" xmlns="http://www.w3.org/2000/svg" xmlns:xlink="http://www.w3.org/1999/xlink">
    <title>Logo</title>
    <g id="⌽-Создать-проект" stroke="none" stroke-width="1" fill="none" fill-rule="evenodd">
        <g id="Счёт_авторизация_авторизован_ошибка-при-отправке" transform="translate(-783.000000, -51.000000)" fill="#1E96DC" fill-rule="nonzero">
            <g id="Logo" transform="translate(783.000000, 51.000000)">
                <path d="M79,79 L59.25,79 L59.25,59.25 L39.5,59.25 L39.5,39.5 L19.75,39.5 L19.75,19.75 L0,19.75 L0,0 L79,0 L79,79 Z M40.4634146,79 L20.2317073,79 L20.2317073,58.7682927 L0,58.7682927 L0,38.5365854 L20.2317073,38.5365854 L20.2317073,58.7682927 L40.4634146,58.7682927 L40.4634146,79 Z" id="Вычитание_1"></path>
                <g id="Startup-Market" transform="translate(105.000000, 22.000000)">
                    <path d="M14.7544841,21.2827869 C14.7544841,20.2377049 14.3928545,19.4354508 13.6695955,18.8760246 C12.9463365,18.3165984 11.6444703,17.7264344 9.7639968,17.1055328 C7.88352335,16.4846311 6.39481519,15.8729508 5.29787234,15.2704918 C2.30840171,13.6229508 0.8136664,11.4036885 0.8136664,8.61270492 C0.8136664,7.16188525 1.21447244,5.86782787 2.01608453,4.73053279 C2.81769661,3.5932377 3.96888389,2.70491803 5.46964636,2.06557377 C6.97040883,1.42622951 8.65499964,1.10655738 10.5234188,1.10655738 C12.4038922,1.10655738 14.0794423,1.45389344 15.550069,2.14856557 C17.0206957,2.8432377 18.1628422,3.82377049 18.9765086,5.09016393 C19.790175,6.35655738 20.1970082,7.79508197 20.1970082,9.4057377 L14.7725655,9.4057377 C14.7725655,8.17622951 14.3928545,7.22028689 13.6334326,6.53790984 C12.8740106,5.85553279 11.8072035,5.51434426 10.4330114,5.51434426 C9.10703653,5.51434426 8.07639242,5.80020492 7.34107908,6.37192623 C6.60576574,6.94364754 6.23810907,7.69672131 6.23810907,8.63114754 C6.23810907,9.50409836 6.6690509,10.2356557 7.53093457,10.8258197 C8.39281824,11.4159836 9.66153511,11.9692623 11.3370852,12.4856557 C14.4229903,13.432377 16.6711205,14.6065574 18.0814756,16.0081967 C19.4918307,17.4098361 20.1970082,19.1557377 20.1970082,21.2459016 C20.1970082,23.5696721 19.3351245,25.392418 17.6113572,26.7141393 C15.8875899,28.0358607 13.5671338,28.6967213 10.6499891,28.6967213 C8.62486384,28.6967213 6.78055334,28.3186475 5.11705758,27.5625 C3.45356183,26.8063525 2.18484496,25.7704918 1.31090698,24.454918 C0.436968993,23.1393443 0,21.6147541 0,19.8811475 L5.44252414,19.8811475 C5.44252414,22.8442623 7.1783458,24.3258197 10.6499891,24.3258197 C11.939801,24.3258197 12.9463365,24.0584016 13.6695955,23.5235656 C14.3928545,22.9887295 14.7544841,22.2418033 14.7544841,21.2827869 Z" id="Path"></path>
                    <path d="M29.7801903,3.46721311 L29.7801903,8.37295082 L33.1252632,8.37295082 L33.1252632,12.2827869 L29.7801903,12.2827869 L29.7801903,22.2418033 C29.7801903,22.9795082 29.9188149,23.5081967 30.1960642,23.8278689 C30.4733135,24.147541 31.0037034,24.307377 31.787234,24.307377 C32.3658413,24.307377 32.8781497,24.2643443 33.3241595,24.1782787 L33.3241595,28.2172131 C32.2995425,28.5368852 31.2447898,28.6967213 30.1599012,28.6967213 C26.4953889,28.6967213 24.6269697,26.8094262 24.5546438,23.0348361 L24.5546438,12.2827869 L21.6977707,12.2827869 L21.6977707,8.37295082 L24.5546438,8.37295082 L24.5546438,3.46721311 L29.7801903,3.46721311 Z" id="Path"></path>
                    <path d="M47.373466,28.3278689 C47.1323796,27.8483607 46.957592,27.2520492 46.8491032,26.5389344 C45.5833999,27.977459 43.9379856,28.6967213 41.9128604,28.6967213 C39.9962239,28.6967213 38.4080677,28.1311475 37.1483915,27 C35.8887154,25.8688525 35.2588774,24.442623 35.2588774,22.7213115 C35.2588774,20.6065574 36.0273401,18.9836066 37.5642655,17.852459 C39.1011909,16.7213115 41.3221988,16.1495902 44.2272892,16.1372951 L46.6321255,16.1372951 L46.6321255,14.9938525 C46.6321255,14.0717213 46.4000799,13.3340164 45.9359887,12.7807377 C45.4718975,12.227459 44.7395977,11.9508197 43.7390894,11.9508197 C42.8591242,11.9508197 42.1690146,12.1659836 41.6687604,12.5963115 C41.1685063,13.0266393 40.9183792,13.6168033 40.9183792,14.3668033 L35.6928328,14.3668033 C35.6928328,13.2110656 36.042408,12.1413934 36.7415583,11.1577869 C37.4407087,10.1741803 38.4291627,9.40266393 39.7069203,8.8432377 C40.9846779,8.28381148 42.4191417,8.00409836 44.0103115,8.00409836 C46.4211749,8.00409836 48.3347978,8.62192623 49.75118,9.85758197 C51.1675623,11.0932377 51.8757534,12.829918 51.8757534,15.067623 L51.8757534,23.7172131 C51.8878077,25.6106557 52.1469755,27.0430328 52.6532568,28.0143443 L52.6532568,28.3278689 L47.373466,28.3278689 Z M43.0519933,24.6209016 C43.8234696,24.6209016 44.5346743,24.4456967 45.1856074,24.0952869 C45.8365406,23.744877 46.3187132,23.2745902 46.6321255,22.6844262 L46.6321255,19.2540984 L44.6793261,19.2540984 C42.0635393,19.2540984 40.6712657,20.1762295 40.5025053,22.0204918 L40.4844238,22.3340164 C40.4844238,22.9979508 40.7134558,23.545082 41.1715199,23.9754098 C41.6295839,24.4057377 42.2564084,24.6209016 43.0519933,24.6209016 Z" id="Shape"></path>
                    <path d="M66.8833781,13.3709016 C66.1721734,13.272541 65.5453489,13.2233607 65.0029047,13.2233607 C63.0259967,13.2233607 61.7301576,13.9057377 61.1153874,15.2704918 L61.1153874,28.3278689 L55.889841,28.3278689 L55.889841,8.37295082 L60.8260838,8.37295082 L60.9707356,10.7520492 C62.0194612,8.92008197 63.4720064,8.00409836 65.3283712,8.00409836 C65.9069784,8.00409836 66.4494227,8.08401639 66.955704,8.24385246 L66.8833781,13.3709016 Z" id="Path"></path>
                    <path d="M76.5569675,3.46721311 L76.5569675,8.37295082 L79.9020405,8.37295082 L79.9020405,12.2827869 L76.5569675,12.2827869 L76.5569675,22.2418033 C76.5569675,22.9795082 76.6955922,23.5081967 76.9728415,23.8278689 C77.2500908,24.147541 77.7804807,24.307377 78.5640113,24.307377 C79.1426185,24.307377 79.654927,24.2643443 80.1009368,24.1782787 L80.1009368,28.2172131 C79.0763198,28.5368852 78.0215671,28.6967213 76.9366785,28.6967213 C73.2721661,28.6967213 71.403747,26.8094262 71.3314211,23.0348361 L71.3314211,12.2827869 L68.474548,12.2827869 L68.474548,8.37295082 L71.3314211,8.37295082 L71.3314211,3.46721311 L76.5569675,3.46721311 Z" id="Path"></path>
                    <path d="M94.5299543,26.2991803 C93.2401423,27.897541 91.4561034,28.6967213 89.1778375,28.6967213 C87.0803863,28.6967213 85.4801757,28.0819672 84.3772057,26.852459 C83.2742357,25.6229508 82.7106964,23.8217213 82.6865878,21.4487705 L82.6865878,8.37295082 L87.9121342,8.37295082 L87.9121342,21.2643443 C87.9121342,23.3422131 88.8403166,24.3811475 90.6966814,24.3811475 C92.468666,24.3811475 93.6861521,23.7540984 94.3491395,22.5 L94.3491395,8.37295082 L99.5927674,8.37295082 L99.5927674,28.3278689 L94.6746061,28.3278689 L94.5299543,26.2991803 Z" id="Path"></path>
                    <path d="M121.145886,18.5348361 C121.145886,21.6086066 120.461804,24.0706967 119.093639,25.9211066 C117.725474,27.7715164 115.87815,28.6967213 113.551667,28.6967213 C111.574759,28.6967213 109.977562,27.9959016 108.760076,26.5942623 L108.760076,36 L103.534529,36 L103.534529,8.37295082 L108.380365,8.37295082 L108.561179,10.3278689 C109.826883,8.77868852 111.478324,8.00409836 113.515504,8.00409836 C115.926367,8.00409836 117.800813,8.91393443 119.138842,10.7336066 C120.476872,12.5532787 121.145886,15.0614754 121.145886,18.2581967 L121.145886,18.5348361 Z M115.92034,18.147541 C115.92034,16.2909836 115.597887,14.8586066 114.952981,13.8504098 C114.308075,12.8422131 113.370852,12.3381148 112.141311,12.3381148 C110.501924,12.3381148 109.374846,12.977459 108.760076,14.2561475 L108.760076,22.4262295 C109.398954,23.7418033 110.538087,24.3995902 112.177474,24.3995902 C114.672718,24.3995902 115.92034,22.3155738 115.92034,18.147541 Z" id="Shape"></path>
                    <polygon id="Path" points="141.035509 1.47540984 147.797981 20.9508197 154.52429 1.47540984 161.648392 1.47540984 161.648392 28.3278689 156.205867 28.3278689 156.205867 20.9877049 156.748312 8.31762295 149.642292 28.3278689 145.917508 28.3278689 138.829569 8.33606557 139.372014 20.9877049 139.372014 28.3278689 133.947571 28.3278689 133.947571 1.47540984"></polygon>
                    <path d="M177.379275,28.3278689 C177.138189,27.8483607 176.963401,27.2520492 176.854912,26.5389344 C175.589209,27.977459 173.943795,28.6967213 171.91867,28.6967213 C170.002033,28.6967213 168.413877,28.1311475 167.154201,27 C165.894525,25.8688525 165.264687,24.442623 165.264687,22.7213115 C165.264687,20.6065574 166.033149,18.9836066 167.570075,17.852459 C169.107,16.7213115 171.328008,16.1495902 174.233099,16.1372951 L176.637935,16.1372951 L176.637935,14.9938525 C176.637935,14.0717213 176.405889,13.3340164 175.941798,12.7807377 C175.477707,12.227459 174.745407,11.9508197 173.744899,11.9508197 C172.864934,11.9508197 172.174824,12.1659836 171.67457,12.5963115 C171.174316,13.0266393 170.924189,13.6168033 170.924189,14.3668033 L165.698642,14.3668033 C165.698642,13.2110656 166.048217,12.1413934 166.747368,11.1577869 C167.446518,10.1741803 168.434972,9.40266393 169.71273,8.8432377 C170.990487,8.28381148 172.424951,8.00409836 174.016121,8.00409836 C176.426984,8.00409836 178.340607,8.62192623 179.756989,9.85758197 C181.173372,11.0932377 181.881563,12.829918 181.881563,15.067623 L181.881563,23.7172131 C181.893617,25.6106557 182.152785,27.0430328 182.659066,28.0143443 L182.659066,28.3278689 L177.379275,28.3278689 Z M173.057803,24.6209016 C173.829279,24.6209016 174.540484,24.4456967 175.191417,24.0952869 C175.84235,23.744877 176.324523,23.2745902 176.637935,22.6844262 L176.637935,19.2540984 L174.685135,19.2540984 C172.069349,19.2540984 170.677075,20.1762295 170.508315,22.0204918 L170.490233,22.3340164 C170.490233,22.9979508 170.719265,23.545082 171.177329,23.9754098 C171.635393,24.4057377 172.262218,24.6209016 173.057803,24.6209016 Z" id="Shape"></path>
                    <path d="M196.889187,13.3709016 C196.177983,13.272541 195.551158,13.2233607 195.008714,13.2233607 C193.031806,13.2233607 191.735967,13.9057377 191.121197,15.2704918 L191.121197,28.3278689 L185.89565,28.3278689 L185.89565,8.37295082 L190.831893,8.37295082 L190.976545,10.7520492 C192.02527,8.92008197 193.477816,8.00409836 195.334181,8.00409836 C195.912788,8.00409836 196.455232,8.08401639 196.961513,8.24385246 L196.889187,13.3709016 Z" id="Path"></path>
                    <polygon id="Path" points="206.508532 20.3237705 204.628059 22.2418033 204.628059 28.3278689 199.402513 28.3278689 199.402513 0 204.628059 0 204.628059 15.6946721 205.640622 14.3668033 210.64919 8.37295082 216.923462 8.37295082 209.853605 16.6905738 217.538233 28.3278689 211.535183 28.3278689"></polygon>
                    <path d="M228.188222,28.6967213 C225.319294,28.6967213 222.98377,27.7991803 221.18165,26.0040984 C219.379529,24.2090164 218.478469,21.817623 218.478469,18.829918 L218.478469,18.3135246 C218.478469,16.3094262 218.85818,14.517418 219.617602,12.9375 C220.377024,11.357582 221.452872,10.1403689 222.845146,9.28586066 C224.237419,8.43135246 225.825575,8.00409836 227.609614,8.00409836 C230.285673,8.00409836 232.392165,8.8647541 233.92909,10.5860656 C235.466016,12.307377 236.234478,14.7479508 236.234478,17.9077869 L236.234478,20.0840164 L223.776342,20.0840164 C223.945102,21.3872951 224.454397,22.432377 225.304226,23.2192623 C226.154056,24.0061475 227.229903,24.3995902 228.53177,24.3995902 C230.544841,24.3995902 232.117929,23.6557377 233.251035,22.1680328 L235.818604,25.1004098 C235.035074,26.2315574 233.974294,27.1137295 232.636265,27.7469262 C231.298235,28.380123 229.815554,28.6967213 228.188222,28.6967213 Z M227.591533,12.3196721 C226.554862,12.3196721 225.714073,12.6762295 225.069167,13.3893443 C224.424261,14.102459 224.011401,15.1229508 223.830586,16.4508197 L231.099339,16.4508197 L231.099339,16.0266393 C231.075231,14.8463115 230.761818,13.9334016 230.159102,13.2879098 C229.556387,12.642418 228.70053,12.3196721 227.591533,12.3196721 Z" id="Shape"></path>
                    <path d="M245.456031,3.46721311 L245.456031,8.37295082 L248.801104,8.37295082 L248.801104,12.2827869 L245.456031,12.2827869 L245.456031,22.2418033 C245.456031,22.9795082 245.594655,23.5081967 245.871905,23.8278689 C246.149154,24.147541 246.679544,24.307377 247.463075,24.307377 C248.041682,24.307377 248.55399,24.2643443 249,24.1782787 L249,28.2172131 C247.975383,28.5368852 246.92063,28.6967213 245.835742,28.6967213 C242.171229,28.6967213 240.30281,26.8094262 240.230484,23.0348361 L240.230484,12.2827869 L237.373611,12.2827869 L237.373611,8.37295082 L240.230484,8.37295082 L240.230484,3.46721311 L245.456031,3.46721311 Z" id="Path"></path>
                </g>
            </g>
        </g>
    </g>
</svg>