<?xml version="1.0" encoding="UTF-8"?>
<svg width="200px" height="45px" viewBox="0 0 200 45" version="1.1" xmlns="http://www.w3.org/2000/svg" xmlns:xlink="http://www.w3.org/1999/xlink">
    <title>Logo</title>
    <g id="⌽-Создать-проект" stroke="none" stroke-width="1" fill="none" fill-rule="evenodd">
        <g id="Контакты_mobile" transform="translate(-80.000000, -29.000000)" fill="#1E96DC" fill-rule="nonzero">
            <g id="Logo" transform="translate(80.000000, 29.000000)">
                <path d="M44.7761194,44.7761194 L33.5820896,44.7761194 L33.5820896,33.5820896 L22.3880597,33.5820896 L22.3880597,22.3880597 L11.1940299,22.3880597 L11.1940299,11.1940299 L0,11.1940299 L0,0 L44.7761194,0 L44.7761194,44.7761194 Z M22.9341099,44.7761194 L11.467055,44.7761194 L11.467055,33.3090644 L0,33.3090644 L0,21.8420095 L11.467055,21.8420095 L11.467055,33.3090644 L22.9341099,33.3090644 L22.9341099,44.7761194 Z" id="Вычитание_1"></path>
                <g id="Startup-Market" transform="translate(58.706468, 12.935323)">
                    <path d="M8.37234205,11.7649458 C8.37234205,11.1872332 8.16713759,10.7437539 7.75672867,10.4345078 C7.34631974,10.1252617 6.60758368,9.79902401 5.54052048,9.4557948 C4.47345727,9.11256559 3.6286989,8.77443384 3.00624537,8.44139956 C1.30988848,7.53065275 0.46171004,6.3038632 0.46171004,4.76103091 C0.46171004,3.95902999 0.689144985,3.24368594 1.14401488,2.61499878 C1.59888477,1.98631161 2.25211897,1.49525596 3.10371749,1.14183182 C3.95531601,0.788407688 4.91122679,0.61169562 5.97144985,0.61169562 C7.03851305,0.61169562 7.98929372,0.803700079 8.82379187,1.187709 C9.65829001,1.57171791 10.3063941,2.1137482 10.7681041,2.81379985 C11.2298142,3.51385151 11.4606692,4.30905581 11.4606692,5.19941277 L8.38260227,5.19941277 C8.38260227,4.51975097 8.16713759,3.99131392 7.73620822,3.61410162 C7.30527885,3.23688932 6.69992569,3.04828317 5.92014873,3.04828317 C5.16773237,3.04828317 4.58289965,3.20630454 4.16565058,3.52234728 C3.74840151,3.83839002 3.53977697,4.25468287 3.53977697,4.77122584 C3.53977697,5.25378572 3.78431229,5.65818449 4.27338292,5.98442215 C4.76245356,6.31065982 5.48237921,6.61650763 6.43315988,6.90196558 C8.18423796,7.42530517 9.4599257,8.07438219 10.2602231,8.84919664 C11.0605205,9.62401109 11.4606692,10.5891308 11.4606692,11.7445559 C11.4606692,13.0291167 10.9715986,14.0367153 9.9934573,14.7673518 C9.01531603,15.4979882 7.6985874,15.8633064 6.04327141,15.8633064 C4.89412642,15.8633064 3.84758366,15.6543104 2.90364314,15.2363184 C1.95970261,14.8183264 1.23977696,14.2457113 0.743866175,13.5184732 C0.247955392,12.7912351 0,11.9484544 0,10.9901313 L3.08832715,10.9901313 C3.08832715,12.6281162 4.07330857,13.4471087 6.04327141,13.4471087 C6.77516732,13.4471087 7.34631974,13.2992823 7.75672867,13.0036294 C8.16713759,12.7079765 8.37234205,12.295082 8.37234205,11.7649458 Z" id="Path"></path>
                    <path d="M16.8985874,1.91664628 L16.8985874,4.62849686 L18.7967287,4.62849686 L18.7967287,6.78982138 L16.8985874,6.78982138 L16.8985874,12.295082 C16.8985874,12.702879 16.9772492,12.9951336 17.1345726,13.1718457 C17.291896,13.3485578 17.5928625,13.4369138 18.0374722,13.4369138 C18.3657994,13.4369138 18.6565057,13.4131256 18.9095912,13.3655493 L18.9095912,15.5982383 C18.3281785,15.7749504 17.7296655,15.8633064 17.1140521,15.8633064 C15.0346469,15.8633064 13.9744239,14.8200256 13.933383,12.7334638 L13.933383,6.78982138 L12.3122677,6.78982138 L12.3122677,4.62849686 L13.933383,4.62849686 L13.933383,1.91664628 L16.8985874,1.91664628 Z" id="Path"></path>
                    <path d="M26.8817845,15.6594079 C26.7449816,15.3943398 26.6457994,15.0647038 26.5842381,14.6705 C25.8660224,15.4657043 24.9323421,15.8633064 23.7831972,15.8633064 C22.6956135,15.8633064 21.7944239,15.550662 21.0796284,14.9253731 C20.3648328,14.3000843 20.007435,13.5116766 20.007435,12.5601501 C20.007435,11.3911318 20.4434945,10.4939782 21.3156135,9.86868934 C22.1877325,9.24340048 23.4480299,8.92735775 25.0965057,8.92056113 L26.4611154,8.92056113 L26.4611154,8.28847565 C26.4611154,7.7787293 26.3294425,7.37093222 26.0660968,7.06508441 C25.8027511,6.7592366 25.387212,6.6063127 24.8194797,6.6063127 C24.3201488,6.6063127 23.9285503,6.72525351 23.6446841,6.96313514 C23.360818,7.20101677 23.2188849,7.52725444 23.2188849,7.94184814 L20.2536804,7.94184814 C20.2536804,7.30296604 20.4520447,6.71166028 20.8487733,6.16793084 C21.245502,5.6242014 21.8063942,5.19771362 22.5314499,4.8884675 C23.2565057,4.57922138 24.0704834,4.42459832 24.973383,4.42459832 C26.3414128,4.42459832 27.4272864,4.76612837 28.2310039,5.44918848 C29.0347213,6.13224859 29.4365801,7.09227089 29.4365801,8.32925536 L29.4365801,13.1106761 C29.4434202,14.1573553 29.5904834,14.9491613 29.8777697,15.4860941 L29.8777697,15.6594079 L26.8817845,15.6594079 Z M24.4295912,13.6102276 C24.8673607,13.6102276 25.2709295,13.5133757 25.6402975,13.3196721 C26.0096656,13.1259685 26.2832715,12.8659979 26.4611154,12.5397602 L26.4611154,10.6435038 L25.3530113,10.6435038 C23.868699,10.6435038 23.0786618,11.1532501 22.9828997,12.1727428 L22.9726395,12.3460566 C22.9726395,12.713074 23.1026024,13.0155235 23.362528,13.2534051 C23.6224537,13.4912867 23.9781414,13.6102276 24.4295912,13.6102276 Z" id="Shape"></path>
                    <path d="M37.9525653,7.39132208 C37.5489965,7.33694913 37.1933087,7.30976266 36.8855021,7.30976266 C35.7637177,7.30976266 35.0284017,7.68697496 34.6795541,8.44139956 L34.6795541,15.6594079 L31.7143496,15.6594079 L31.7143496,4.62849686 L34.5153905,4.62849686 L34.5974723,5.94364244 C35.1925652,4.93094636 36.0168032,4.42459832 37.0701861,4.42459832 C37.3985132,4.42459832 37.7063199,4.46877634 37.9936061,4.55713237 L37.9525653,7.39132208 Z" id="Path"></path>
                    <path d="M43.4417846,1.91664628 L43.4417846,4.62849686 L45.3399259,4.62849686 L45.3399259,6.78982138 L43.4417846,6.78982138 L43.4417846,12.295082 C43.4417846,12.702879 43.5204463,12.9951336 43.6777697,13.1718457 C43.8350932,13.3485578 44.1360597,13.4369138 44.5806694,13.4369138 C44.9089965,13.4369138 45.1997028,13.4131256 45.4527883,13.3655493 L45.4527883,15.5982383 C44.8713757,15.7749504 44.2728627,15.8633064 43.6572493,15.8633064 C41.5778441,15.8633064 40.517621,14.8200256 40.4765801,12.7334638 L40.4765801,6.78982138 L38.8554649,6.78982138 L38.8554649,4.62849686 L40.4765801,4.62849686 L40.4765801,1.91664628 L43.4417846,1.91664628 Z" id="Path"></path>
                    <path d="M53.6404464,14.5379659 C52.9085505,15.4215262 51.8962085,15.8633064 50.6034203,15.8633064 C49.4132345,15.8633064 48.5052047,15.5234755 47.8793311,14.8438137 C47.2534575,14.1641519 46.9336805,13.1684474 46.9200002,11.8567001 L46.9200002,4.62849686 L49.8852047,4.62849686 L49.8852047,11.7547508 C49.8852047,12.9033793 50.4118962,13.4776935 51.4652791,13.4776935 C52.4707809,13.4776935 53.161636,13.131066 53.5378441,12.4378109 L53.5378441,4.62849686 L56.5133088,4.62849686 L56.5133088,15.6594079 L53.7225282,15.6594079 L53.6404464,14.5379659 Z" id="Path"></path>
                    <path d="M68.7434948,10.2459016 C68.7434948,11.9450561 68.3553163,13.3060789 67.5789595,14.3289699 C66.8026026,15.3518609 65.7543498,15.8633064 64.4342011,15.8633064 C63.3124167,15.8633064 62.406097,15.4758992 61.715242,14.7010847 L61.715242,19.9004975 L58.7500375,19.9004975 L58.7500375,4.62849686 L61.4997773,4.62849686 L61.6023795,5.70915912 C62.3205951,4.85278525 63.2576955,4.42459832 64.4136806,4.42459832 C65.7817104,4.42459832 66.8453535,4.92754805 67.60461,5.93344752 C68.3638665,6.93934698 68.7434948,8.32585705 68.7434948,10.0929777 L68.7434948,10.2459016 Z M65.7782903,10.0318082 C65.7782903,9.00551885 65.5953163,8.21371286 65.2293684,7.65639018 C64.8634204,7.0990675 64.3315988,6.82040617 63.6339037,6.82040617 C62.7036435,6.82040617 62.0640895,7.1738303 61.715242,7.88067857 L61.715242,12.3970312 C62.0777698,13.1242694 62.7241639,13.4878884 63.6544241,13.4878884 C65.0703349,13.4878884 65.7782903,12.3358617 65.7782903,10.0318082 Z" id="Shape"></path>
                    <polygon id="Path" points="80.0297402 0.81559416 83.8670636 11.5814371 87.6838666 0.81559416 91.7263945 0.81559416 91.7263945 15.6594079 88.6380674 15.6594079 88.6380674 11.6018269 88.9458741 4.59791208 84.9136064 15.6594079 82.8000004 15.6594079 78.777993 4.60810701 79.0857997 11.6018269 79.0857997 15.6594079 76.0077327 15.6594079 76.0077327 0.81559416"></polygon>
                    <path d="M100.652789,15.6594079 C100.515986,15.3943398 100.416803,15.0647038 100.355242,14.6705 C99.6370265,15.4657043 98.7033462,15.8633064 97.5542013,15.8633064 C96.4666176,15.8633064 95.565428,15.550662 94.8506325,14.9253731 C94.1358369,14.3000843 93.7784392,13.5116766 93.7784392,12.5601501 C93.7784392,11.3911318 94.2144986,10.4939782 95.0866176,9.86868934 C95.9587366,9.24340048 97.219034,8.92735775 98.8675098,8.92056113 L100.232119,8.92056113 L100.232119,8.28847565 C100.232119,7.7787293 100.100447,7.37093222 99.8371009,7.06508441 C99.5737552,6.7592366 99.1582161,6.6063127 98.5904838,6.6063127 C98.0911529,6.6063127 97.6995544,6.72525351 97.4156882,6.96313514 C97.1318221,7.20101677 96.989889,7.52725444 96.989889,7.94184814 L94.0246845,7.94184814 C94.0246845,7.30296604 94.2230488,6.71166028 94.6197774,6.16793084 C95.0165061,5.6242014 95.5773983,5.19771362 96.302454,4.8884675 C97.0275098,4.57922138 97.8414875,4.42459832 98.7443871,4.42459832 C100.112417,4.42459832 101.19829,4.76612837 102.002008,5.44918848 C102.805725,6.13224859 103.207584,7.09227089 103.207584,8.32925536 L103.207584,13.1106761 C103.214424,14.1573553 103.361488,14.9491613 103.648774,15.4860941 L103.648774,15.6594079 L100.652789,15.6594079 Z M98.2005953,13.6102276 C98.6383648,13.6102276 99.0419336,13.5133757 99.4113016,13.3196721 C99.7806697,13.1259685 100.054276,12.8659979 100.232119,12.5397602 L100.232119,10.6435038 L99.1240154,10.6435038 C97.6397031,10.6435038 96.8496659,11.1532501 96.7539039,12.1727428 L96.7436436,12.3460566 C96.7436436,12.713074 96.8736065,13.0155235 97.1335321,13.2534051 C97.3934578,13.4912867 97.7491455,13.6102276 98.2005953,13.6102276 Z" id="Shape"></path>
                    <path d="M111.723569,7.39132208 C111.320001,7.33694913 110.964313,7.30976266 110.656506,7.30976266 C109.534722,7.30976266 108.799406,7.68697496 108.450558,8.44139956 L108.450558,15.6594079 L105.485354,15.6594079 L105.485354,4.62849686 L108.286395,4.62849686 L108.368476,5.94364244 C108.963569,4.93094636 109.787807,4.42459832 110.84119,4.42459832 C111.169517,4.42459832 111.477324,4.46877634 111.76461,4.55713237 L111.723569,7.39132208 Z" id="Path"></path>
                    <polygon id="Path" points="117.182008 11.2348096 116.114945 12.295082 116.114945 15.6594079 113.14974 15.6594079 113.14974 0 116.114945 0 116.114945 8.67588288 116.689517 7.94184814 119.531599 4.62849686 123.091897 4.62849686 119.080149 9.22640894 123.440744 15.6594079 120.03435 15.6594079"></polygon>
                    <path d="M129.484016,15.8633064 C127.85606,15.8633064 126.530781,15.3671533 125.508179,14.3748471 C124.485577,13.3825408 123.974276,12.0605986 123.974276,10.4090205 L123.974276,10.1235625 C123.974276,9.01571378 124.18974,8.02510671 124.62067,7.15174129 C125.051599,6.27837588 125.662082,5.6055107 126.45212,5.13314575 C127.242157,4.6607808 128.143346,4.42459832 129.155688,4.42459832 C130.674201,4.42459832 131.869517,4.90036158 132.741636,5.8518881 C133.613755,6.80341462 134.049815,8.15254329 134.049815,9.89927412 L134.049815,11.1022755 L126.980521,11.1022755 C127.076283,11.822717 127.365279,12.4004295 127.84751,12.8354131 C128.32974,13.2703967 128.940224,13.4878884 129.67896,13.4878884 C130.821265,13.4878884 131.713904,13.076693 132.356878,12.2543023 L133.81383,13.8752957 C133.36922,14.5005845 132.767287,14.9882419 132.00803,15.3382677 C131.248774,15.6882935 130.407436,15.8633064 129.484016,15.8633064 Z M129.145428,6.81021124 C128.557175,6.81021124 128.080075,7.00731316 127.714127,7.40151701 C127.348179,7.79572085 127.113904,8.35984014 127.011302,9.09387489 L131.135911,9.09387489 L131.135911,8.85939157 C131.122231,8.20691624 130.944387,7.70226735 130.60238,7.34544491 C130.260372,6.98862246 129.774722,6.81021124 129.145428,6.81021124 Z" id="Shape"></path>
                    <path d="M139.282529,1.91664628 L139.282529,4.62849686 L141.18067,4.62849686 L141.18067,6.78982138 L139.282529,6.78982138 L139.282529,12.295082 C139.282529,12.702879 139.36119,12.9951336 139.518514,13.1718457 C139.675837,13.3485578 139.976804,13.4369138 140.421413,13.4369138 C140.749741,13.4369138 141.040447,13.4131256 141.293532,13.3655493 L141.293532,15.5982383 C140.71212,15.7749504 140.113607,15.8633064 139.497993,15.8633064 C137.418588,15.8633064 136.358365,14.8200256 136.317324,12.7334638 L136.317324,6.78982138 L134.696209,6.78982138 L134.696209,4.62849686 L136.317324,4.62849686 L136.317324,1.91664628 L139.282529,1.91664628 Z" id="Path"></path>
                </g>
            </g>
        </g>
    </g>
</svg>