<?xml version="1.0" encoding="UTF-8"?>
<svg version="1.1" width="206px" height="46px" viewBox="0 0 206.0 46.0" xmlns="http://www.w3.org/2000/svg"
     xmlns:xlink="http://www.w3.org/1999/xlink">
    <defs>
        <clipPath id="i0">
            <path d="M1920,0 L1920,5458 L0,5458 L0,0 L1920,0 Z"></path>
        </clipPath>
        <clipPath id="i1">
            <path d="M23.5609756,46 L11.7804878,46 L11.7804878,34.2195122 L0,34.2195122 L0,22.4390244 L11.5,22.439 L11.5,11.5 L0,11.5 L0,0 L46,0 L46,46 L34.5,46 L34.5,34.5 L23.56,34.5 L23.5609756,46 Z M11.78,23 L11.7804878,34.2195122 L23,34.219 L23,23 L11.78,23 Z"></path>
        </clipPath>
        <clipPath id="i2">
            <path d="M6.12809527,0 C7.2231501,0 8.19887203,0.202612705 9.05526106,0.607838115 C9.91165009,1.01306352 10.5767555,1.58504098 11.0505773,2.32377049 C11.5243991,3.0625 11.76131,3.90163934 11.76131,4.84118852 L8.602498,4.84118852 C8.602498,4.12397541 8.38138116,3.56634221 7.93914748,3.16828893 C7.4969138,2.77023566 6.87568078,2.57120902 6.07544841,2.57120902 C5.30329436,2.57120902 4.70312008,2.73796107 4.27492557,3.07146516 C3.84673105,3.40496926 3.6326338,3.8442623 3.6326338,4.38934426 C3.6326338,4.89856557 3.88358386,5.32530738 4.38548399,5.66956967 C4.88738412,6.01383197 5.62619514,6.33657787 6.60191707,6.63780738 C8.39893012,7.19006148 9.7080822,7.875 10.5293733,8.69262295 C11.3506644,9.5102459 11.76131,10.5286885 11.76131,11.7479508 C11.76131,13.1034836 11.2594099,14.166752 10.2556096,14.9377561 C9.25180936,15.7087602 7.90053978,16.0942623 6.20180089,16.0942623 C5.02251107,16.0942623 3.948515,15.8737193 2.97981265,15.4326332 C2.0111103,14.9915471 1.27229928,14.3872951 0.763379566,13.619877 C0.254459855,12.852459 0,11.9631148 0,10.9518443 L3.16934137,10.9518443 C3.16934137,12.6803279 4.18016121,13.5445697 6.20180089,13.5445697 C6.95289618,13.5445697 7.5390313,13.3885758 7.96020623,13.0765881 C8.38138116,12.7646004 8.59196863,12.3288934 8.59196863,11.7694672 C8.59196863,11.1598361 8.38138116,10.6918545 7.96020623,10.3655225 C7.57412921,10.0663849 6.90492904,9.75218081 5.95260572,9.42291026 L5.68586159,9.33273566 C4.59080677,8.97054303 3.72388836,8.61372951 3.08510638,8.26229508 C1.34424999,7.30122951 0.473821799,6.00665984 0.473821799,4.37858607 C0.473821799,3.53227459 0.707222908,2.77740779 1.17402513,2.11398566 C1.64082734,1.45056352 2.31119744,0.932377049 3.18513543,0.55942623 C4.05907342,0.18647541 5.04006003,0 6.12809527,0 Z"></path>
        </clipPath>
        <clipPath id="i3">
            <path d="M4.70662987,0 L4.70662987,2.86168033 L6.65456394,2.86168033 L6.65456394,5.14241803 L4.70662987,5.14241803 L4.70662987,10.9518443 C4.70662987,11.3821721 4.78735507,11.6905738 4.94880546,11.8770492 C5.11025585,12.0635246 5.41911747,12.1567623 5.87539031,12.1567623 C6.21233026,12.1567623 6.5106625,12.1316598 6.77038705,12.0814549 L6.77038705,14.4375 C6.17372256,14.6239754 5.55950911,14.7172131 4.92774671,14.7172131 C2.79379372,14.7172131 1.70575848,13.616291 1.66364098,11.4144467 L1.66364098,5.14241803 L0,5.14241803 L0,2.86168033 L1.66364098,2.86168033 L1.66364098,0 L4.70662987,0 Z"></path>
        </clipPath>
        <clipPath id="i4">
            <path d="M5.09621669,0 C6.50013313,0 7.61449181,0.36039959 8.43929272,1.08119877 C9.26409363,1.80199795 9.67649408,2.81506148 9.67649408,4.12038934 L9.67649408,9.16598361 C9.68351366,10.2704918 9.83443468,11.1060451 10.1292571,11.6726434 L10.1292571,11.8555328 L7.05468012,11.8555328 C6.91428848,11.5758197 6.81250454,11.2279713 6.7493283,10.8119877 C6.01227217,11.651127 5.05409919,12.0706967 3.87480938,12.0706967 C2.75869581,12.0706967 1.83386585,11.7407787 1.10031951,11.0809426 C0.366773171,10.4211066 0,9.58913934 0,8.58504098 C0,7.35143443 0.447498366,6.40471311 1.3424951,5.74487705 C2.23749183,5.08504098 3.53084985,4.75153689 5.22256917,4.74436475 L6.62297582,4.74436475 L6.62297582,4.07735656 C6.62297582,3.53944672 6.48784886,3.10911885 6.21759495,2.78637295 C5.94734103,2.46362705 5.52090141,2.3022541 4.93827609,2.3022541 C4.42584659,2.3022541 4.0239755,2.42776639 3.73266284,2.67879098 C3.44135018,2.92981557 3.29569385,3.27407787 3.29569385,3.71157787 L0.25270496,3.71157787 C0.25270496,3.03739754 0.456272844,2.41342213 0.863408612,1.83965164 C1.27054438,1.26588115 1.84615012,0.815829918 2.59022584,0.489497951 C3.33430155,0.163165984 4.16963184,0 5.09621669,0 Z M6.62297582,6.5625 L5.4858035,6.5625 C3.96255416,6.5625 3.15179241,7.10040984 3.05351826,8.17622951 L3.04298889,8.35911885 C3.04298889,8.74641393 3.17636095,9.06557377 3.44310508,9.31659836 C3.7098492,9.56762295 4.07486748,9.69313525 4.5381599,9.69313525 C4.98741316,9.69313525 5.40156851,9.59093238 5.78062595,9.38652664 C6.15968339,9.1821209 6.44046668,8.90778689 6.62297582,8.56352459 L6.62297582,6.5625 Z"></path>
        </clipPath>
        <clipPath id="i5">
            <path d="M5.49633287,0 C5.83327282,0 6.14915402,0.0466188525 6.44397647,0.139856557 L6.40185898,3.13063525 C5.98770363,3.0732582 5.62268535,3.04456967 5.30680415,3.04456967 C4.15559267,3.04456967 3.40098758,3.44262295 3.04298889,4.23872951 L3.04298889,11.8555328 L0,11.8555328 L0,0.215163934 L2.87451892,0.215163934 L2.9587539,1.60297131 C3.56945756,0.53432377 4.41531721,0 5.49633287,0 Z"></path>
        </clipPath>
        <clipPath id="i6">
            <path d="M4.70662987,0 L4.70662987,2.86168033 L6.65456394,2.86168033 L6.65456394,5.14241803 L4.70662987,5.14241803 L4.70662987,10.9518443 C4.70662987,11.3821721 4.78735507,11.6905738 4.94880546,11.8770492 C5.11025585,12.0635246 5.41911747,12.1567623 5.87539031,12.1567623 C6.21233026,12.1567623 6.5106625,12.1316598 6.77038705,12.0814549 L6.77038705,14.4375 C6.17372256,14.6239754 5.55950911,14.7172131 4.92774671,14.7172131 C2.79379372,14.7172131 1.70575848,13.616291 1.66364098,11.4144467 L1.66364098,5.14241803 L0,5.14241803 L0,2.86168033 L1.66364098,2.86168033 L1.66364098,0 L4.70662987,0 Z"></path>
        </clipPath>
        <clipPath id="i7">
            <path d="M3.04298889,0 L3.04298889,7.51997951 C3.04298889,8.73206967 3.58349672,9.33811475 4.66451238,9.33811475 C5.69639097,9.33811475 6.40536877,8.97233607 6.79144579,8.24077869 L6.79144579,0 L9.84496405,0 L9.84496405,11.6403689 L6.98097451,11.6403689 L6.89673953,10.4569672 C6.14564423,11.3893443 5.10674606,11.8555328 3.78004502,11.8555328 C2.55863772,11.8555328 1.62678818,11.4969262 0.984496405,10.7797131 C0.342204633,10.0625 0.0140391644,9.01178279 0,7.62756148 L0,0 L3.04298889,0 Z"></path>
        </clipPath>
        <clipPath id="i8">
            <path d="M5.81221407,0 C7.21613052,0 8.30767555,0.530737705 9.08684918,1.59221311 C9.8660228,2.65368852 10.2556096,4.11680328 10.2556096,5.98155738 L10.2556096,6.14293033 C10.2556096,7.93596311 9.85724832,9.37218238 9.06052574,10.4515881 C8.26380316,11.5309939 7.18805219,12.0706967 5.83327282,12.0706967 C4.68206134,12.0706967 3.75196669,11.6618852 3.04298889,10.8442623 L3.04298889,16.3309426 L0,16.3309426 L0,0.215163934 L2.82187205,0.215163934 L2.92716578,1.35553279 C3.66422192,0.451844262 4.62590468,0 5.81221407,0 Z M5.0119817,2.52817623 C4.05731852,2.52817623 3.40098758,2.90112705 3.04298889,3.64702869 L3.04298889,8.41290984 C3.41502675,9.18032787 4.07837727,9.56403689 5.03304045,9.56403689 C6.48609397,9.56403689 7.21262072,8.34836066 7.21262072,5.9170082 C7.21262072,4.83401639 7.0248469,3.99846311 6.64929925,3.41034836 C6.2737516,2.82223361 5.72797909,2.52817623 5.0119817,2.52817623 Z"></path>
        </clipPath>
        <clipPath id="i9">
            <path d="M4.12751434,0 L8.06549996,11.3606557 L11.9824268,0 L16.1309999,0 L16.1309999,15.6639344 L12.9616586,15.6639344 L12.9616586,11.3821721 L13.2775398,3.99129098 L9.13949604,15.6639344 L6.97044514,15.6639344 L2.8429308,4.00204918 L3.158812,11.3821721 L3.158812,15.6639344 L0,15.6639344 L0,0 L4.12751434,0 Z"></path>
        </clipPath>
        <clipPath id="i10">
            <path d="M5.09621669,0 C6.50013313,0 7.61449181,0.36039959 8.43929272,1.08119877 C9.26409363,1.80199795 9.67649408,2.81506148 9.67649408,4.12038934 L9.67649408,9.16598361 C9.68351366,10.2704918 9.83443468,11.1060451 10.1292571,11.6726434 L10.1292571,11.8555328 L7.05468012,11.8555328 C6.91428848,11.5758197 6.81250454,11.2279713 6.7493283,10.8119877 C6.01227217,11.651127 5.05409919,12.0706967 3.87480938,12.0706967 C2.75869581,12.0706967 1.83386585,11.7407787 1.10031951,11.0809426 C0.366773171,10.4211066 0,9.58913934 0,8.58504098 C0,7.35143443 0.447498366,6.40471311 1.3424951,5.74487705 C2.23749183,5.08504098 3.53084985,4.75153689 5.22256917,4.74436475 L6.62297582,4.74436475 L6.62297582,4.07735656 C6.62297582,3.53944672 6.48784886,3.10911885 6.21759495,2.78637295 C5.94734103,2.46362705 5.52090141,2.3022541 4.93827609,2.3022541 C4.42584659,2.3022541 4.0239755,2.42776639 3.73266284,2.67879098 C3.44135018,2.92981557 3.29569385,3.27407787 3.29569385,3.71157787 L0.25270496,3.71157787 C0.25270496,3.03739754 0.456272844,2.41342213 0.863408612,1.83965164 C1.27054438,1.26588115 1.84615012,0.815829918 2.59022584,0.489497951 C3.33430155,0.163165984 4.16963184,0 5.09621669,0 Z M6.62297582,6.5625 L5.4858035,6.5625 C3.96255416,6.5625 3.15179241,7.10040984 3.05351826,8.17622951 L3.04298889,8.35911885 C3.04298889,8.74641393 3.17636095,9.06557377 3.44310508,9.31659836 C3.7098492,9.56762295 4.07486748,9.69313525 4.5381599,9.69313525 C4.98741316,9.69313525 5.40156851,9.59093238 5.78062595,9.38652664 C6.15968339,9.1821209 6.44046668,8.90778689 6.62297582,8.56352459 L6.62297582,6.5625 Z"></path>
        </clipPath>
        <clipPath id="i11">
            <path d="M5.49633287,0 C5.83327282,0 6.14915402,0.0466188525 6.44397647,0.139856557 L6.40185898,3.13063525 C5.98770363,3.0732582 5.62268535,3.04456967 5.30680415,3.04456967 C4.15559267,3.04456967 3.40098758,3.44262295 3.04298889,4.23872951 L3.04298889,11.8555328 L0,11.8555328 L0,0.215163934 L2.87451892,0.215163934 L2.9587539,1.60297131 C3.56945756,0.53432377 4.41531721,0 5.49633287,0 Z"></path>
        </clipPath>
        <clipPath id="i12">
            <path d="M3.04298889,0 L3.04298889,9.15522541 L3.6326338,8.38063525 L6.54927021,4.88422131 L10.2029627,4.88422131 L6.08597778,9.73616803 L10.5609614,16.5245902 L7.0652095,16.5245902 L4.13804372,11.8555328 L3.04298889,12.9743852 L3.04298889,16.5245902 L0,16.5245902 L0,0 L3.04298889,0 Z"></path>
        </clipPath>
        <clipPath id="i13">
            <path d="M5.31733353,0 C6.87568078,0 8.10235277,0.50204918 8.9973495,1.50614754 C9.89234623,2.5102459 10.3398446,3.93391393 10.3398446,5.77715164 L10.3398446,7.04661885 L3.08510638,7.04661885 C3.18338053,7.80686475 3.47995788,8.4164959 3.97483843,8.8755123 C4.46971897,9.33452869 5.09621669,9.56403689 5.85433157,9.56403689 C7.0266018,9.56403689 7.94265727,9.13012295 8.602498,8.26229508 L10.097669,9.97284836 C9.64139617,10.6326844 9.02367294,11.1472848 8.24449931,11.5166496 C7.46532568,11.8860143 6.60191707,12.0706967 5.65427347,12.0706967 C3.98361291,12.0706967 2.62356885,11.5471311 1.57414131,10.5 C0.52471377,9.45286885 0,8.05788934 0,6.31506148 L0,6.01383197 C0,4.84477459 0.22111684,3.79943648 0.663350519,2.87781762 C1.1055842,1.95619877 1.73208191,1.24615779 2.54284366,0.747694672 C3.3536054,0.249231557 4.27843536,0 5.31733353,0 Z M5.30680415,2.51741803 C4.70312008,2.51741803 4.21350422,2.72540984 3.83795658,3.14139344 C3.46240893,3.55737705 3.22198824,4.15266393 3.1166945,4.9272541 L7.34950258,4.9272541 L7.34950258,4.67981557 C7.33546341,3.99129098 7.15295428,3.45876025 6.80197517,3.08222336 C6.45099605,2.70568648 5.95260572,2.51741803 5.30680415,2.51741803 Z"></path>
        </clipPath>
        <clipPath id="i14">
            <path d="M4.70662987,0 L4.70662987,2.86168033 L6.65456394,2.86168033 L6.65456394,5.14241803 L4.70662987,5.14241803 L4.70662987,10.9518443 C4.70662987,11.3821721 4.78735507,11.6905738 4.94880546,11.8770492 C5.11025585,12.0635246 5.41911747,12.1567623 5.87539031,12.1567623 C6.21233026,12.1567623 6.5106625,12.1316598 6.77038705,12.0814549 L6.77038705,14.4375 C6.17372256,14.6239754 5.55950911,14.7172131 4.92774671,14.7172131 C2.79379372,14.7172131 1.70575848,13.616291 1.66364098,11.4144467 L1.66364098,5.14241803 L0,5.14241803 L0,2.86168033 L1.66364098,2.86168033 L1.66364098,0 L4.70662987,0 Z"></path>
        </clipPath>
    </defs>
    <g transform="translate(-278.0 -76.0)">
        <g clip-path="url(#i0)">
            <g transform="translate(278.0 76.0)">
                <g clip-path="url(#i1)">
                    <polygon points="0,0 46,0 46,46 0,46 0,0" stroke="none" fill="#1D96DC"></polygon>
                </g>
                <g transform="translate(61.0 12.99999999999999)">
                    <g transform="translate(0.0 0.6454918032786736)">
                        <g clip-path="url(#i2)">
                            <polygon points="0,0 11.76131,0 11.76131,16.0942623 0,16.0942623 0,0" stroke="none"
                                     fill="#1D96DC"></polygon>
                        </g>
                    </g>
                    <g transform="translate(12.63524798489573 2.022540983606632)">
                        <g clip-path="url(#i3)">
                            <polygon points="0,0 6.77038705,0 6.77038705,14.7172131 0,14.7172131 0,0" stroke="none"
                                     fill="#1D96DC"></polygon>
                        </g>
                    </g>
                    <g transform="translate(20.532277975455663 4.669057377049286)">
                        <g clip-path="url(#i4)">
                            <polygon points="0,0 10.1292571,0 10.1292571,12.0706967 0,12.0706967 0,0" stroke="none"
                                     fill="#1D96DC"></polygon>
                        </g>
                    </g>
                    <g transform="translate(32.54629293442741 4.669057377049286)">
                        <g clip-path="url(#i5)">
                            <polygon points="0,0 6.44397647,0 6.44397647,11.8555328 0,11.8555328 0,0" stroke="none"
                                     fill="#1D96DC"></polygon>
                        </g>
                    </g>
                    <g transform="translate(39.87473676566697 2.022540983606632)">
                        <g clip-path="url(#i6)">
                            <polygon points="0,0 6.77038705,0 6.77038705,14.7172131 0,14.7172131 0,0" stroke="none"
                                     fill="#1D96DC"></polygon>
                        </g>
                    </g>
                    <g transform="translate(48.15082419577374 4.884221311474904)">
                        <g clip-path="url(#i7)">
                            <polygon points="0,0 9.84496405,0 9.84496405,11.8555328 0,11.8555328 0,0" stroke="none"
                                     fill="#1D96DC"></polygon>
                        </g>
                    </g>
                    <g transform="translate(60.29119163459444 4.669057377049285)">
                        <g clip-path="url(#i8)">
                            <polygon points="0,0 10.2556096,0 10.2556096,16.3309426 0,16.3309426 0,0" stroke="none"
                                     fill="#1D96DC"></polygon>
                        </g>
                    </g>
                    <g transform="translate(78.00159756009009 0.8606557377052022)">
                        <g clip-path="url(#i9)">
                            <polygon points="0,0 16.1309999,0 16.1309999,15.6639344 0,15.6639344 0,0" stroke="none"
                                     fill="#1D96DC"></polygon>
                        </g>
                    </g>
                    <g transform="translate(96.238472151623 4.669057377049286)">
                        <g clip-path="url(#i10)">
                            <polygon points="0,0 10.1292571,0 10.1292571,12.0706967 0,12.0706967 0,0" stroke="none"
                                     fill="#1D96DC"></polygon>
                        </g>
                    </g>
                    <g transform="translate(108.2524871105947 4.669057377049286)">
                        <g clip-path="url(#i11)">
                            <polygon points="0,0 6.44397647,0 6.44397647,11.8555328 0,11.8555328 0,0" stroke="none"
                                     fill="#1D96DC"></polygon>
                        </g>
                    </g>
                    <g transform="translate(116.1179289811924 0.0)">
                        <g clip-path="url(#i12)">
                            <polygon points="0,0 10.5609614,0 10.5609614,16.5245902 0,16.5245902 0,0" stroke="none"
                                     fill="#1D96DC"></polygon>
                        </g>
                    </g>
                    <g transform="translate(127.2264178345799 4.669057377049284)">
                        <g clip-path="url(#i13)">
                            <polygon points="0,0 10.3398446,0 10.3398446,12.0706967 0,12.0706967 0,0" stroke="none"
                                     fill="#1D96DC"></polygon>
                        </g>
                    </g>
                    <g transform="translate(138.2296129547599 2.022540983606632)">
                        <g clip-path="url(#i14)">
                            <polygon points="0,0 6.77038705,0 6.77038705,14.7172131 0,14.7172131 0,0" stroke="none"
                                     fill="#1D96DC"></polygon>
                        </g>
                    </g>
                </g>
            </g>
        </g>
    </g>
</svg>