<?xml version="1.0" encoding="UTF-8"?>
<svg width="206px" height="46px" viewBox="0 0 206 46" version="1.1" xmlns="http://www.w3.org/2000/svg" xmlns:xlink="http://www.w3.org/1999/xlink">
    <title>Logo</title>
    <g id="⇧-Страница-проекта" stroke="none" stroke-width="1" fill="none" fill-rule="evenodd">
        <g id="Проект_вознаграждения" transform="translate(-278.000000, -76.000000)" fill="#1E96DC" fill-rule="nonzero">
            <g id="Logo" transform="translate(278.000000, 76.000000)">
                <path d="M46,46 L34.5,46 L34.5,34.5 L23,34.5 L23,23 L11.5,23 L11.5,11.5 L0,11.5 L0,0 L46,0 L46,46 Z M23.5609756,46 L11.7804878,46 L11.7804878,34.2195122 L0,34.2195122 L0,22.4390244 L11.7804878,22.4390244 L11.7804878,34.2195122 L23.5609756,34.2195122 L23.5609756,46 Z" id="Вычитание_1"></path>
                <g id="Startup-Market" transform="translate(61.000000, 13.000000)">
                    <path d="M8.59196863,12.414959 C8.59196863,11.8053279 8.38138116,11.3373463 7.96020623,11.0110143 C7.5390313,10.6846824 6.78091642,10.3404201 5.68586159,9.97822746 C4.59080677,9.61603484 3.72388836,9.25922131 3.08510638,8.90778689 C1.34424999,7.94672131 0.473821799,6.65215164 0.473821799,5.02407787 C0.473821799,4.17776639 0.707222908,3.42289959 1.17402513,2.75947746 C1.64082734,2.09605533 2.31119744,1.57786885 3.18513543,1.20491803 C4.05907342,0.831967213 5.04006003,0.645491803 6.12809527,0.645491803 C7.2231501,0.645491803 8.19887203,0.848104508 9.05526106,1.25332992 C9.91165009,1.65855533 10.5767555,2.23053279 11.0505773,2.9692623 C11.5243991,3.7079918 11.76131,4.54713115 11.76131,5.48668033 L8.602498,5.48668033 C8.602498,4.76946721 8.38138116,4.21183402 7.93914748,3.81378074 C7.4969138,3.41572746 6.87568078,3.21670082 6.07544841,3.21670082 C5.30329436,3.21670082 4.70312008,3.38345287 4.27492557,3.71695697 C3.84673105,4.05046107 3.6326338,4.4897541 3.6326338,5.03483607 C3.6326338,5.54405738 3.88358386,5.97079918 4.38548399,6.31506148 C4.88738412,6.65932377 5.62619514,6.98206967 6.60191707,7.28329918 C8.39893012,7.83555328 9.7080822,8.5204918 10.5293733,9.33811475 C11.3506644,10.1557377 11.76131,11.1741803 11.76131,12.3934426 C11.76131,13.7489754 11.2594099,14.8122439 10.2556096,15.583248 C9.25180936,16.354252 7.90053978,16.7397541 6.20180089,16.7397541 C5.02251107,16.7397541 3.948515,16.5192111 2.97981265,16.078125 C2.0111103,15.6370389 1.27229928,15.0327869 0.763379566,14.2653689 C0.254459855,13.4979508 0,12.6086066 0,11.5973361 L3.16934137,11.5973361 C3.16934137,13.3258197 4.18016121,14.1900615 6.20180089,14.1900615 C6.95289618,14.1900615 7.5390313,14.0340676 7.96020623,13.7220799 C8.38138116,13.4100922 8.59196863,12.9743852 8.59196863,12.414959 Z" id="Path"></path>
                    <path d="M17.3418779,2.02254098 L17.3418779,4.88422131 L19.2898119,4.88422131 L19.2898119,7.16495902 L17.3418779,7.16495902 L17.3418779,12.9743852 C17.3418779,13.4047131 17.4226031,13.7131148 17.5840534,13.8995902 C17.7455038,14.0860656 18.0543655,14.1793033 18.5106383,14.1793033 C18.8475782,14.1793033 19.1459105,14.1542008 19.405635,14.1039959 L19.405635,16.460041 C18.8089705,16.6465164 18.1947571,16.7397541 17.5629947,16.7397541 C15.4290417,16.7397541 14.3410065,15.638832 14.298889,13.4369877 L14.298889,7.16495902 L12.635248,7.16495902 L12.635248,4.88422131 L14.298889,4.88422131 L14.298889,2.02254098 L17.3418779,2.02254098 Z" id="Path"></path>
                    <path d="M27.5869581,16.5245902 C27.4465665,16.244877 27.3447825,15.8970287 27.2816063,15.4810451 C26.5445501,16.3201844 25.5863772,16.7397541 24.4070874,16.7397541 C23.2909738,16.7397541 22.3661438,16.4098361 21.6325975,15.75 C20.8990511,15.0901639 20.532278,14.2581967 20.532278,13.2540984 C20.532278,12.0204918 20.9797763,11.0737705 21.8747731,10.4139344 C22.7697698,9.75409836 24.0631278,9.42059426 25.7548471,9.41342213 L27.1552538,9.41342213 L27.1552538,8.74641393 C27.1552538,8.2085041 27.0201268,7.77817623 26.7498729,7.45543033 C26.479619,7.13268443 26.0531794,6.97131148 25.4705541,6.97131148 C24.9581246,6.97131148 24.5562535,7.09682377 24.2649408,7.34784836 C23.9736282,7.59887295 23.8279718,7.94313525 23.8279718,8.38063525 L20.7849829,8.38063525 C20.7849829,7.70645492 20.9885508,7.08247951 21.3956866,6.50870902 C21.8028224,5.93493852 22.3784281,5.4848873 23.1225038,5.15855533 C23.8665795,4.83222336 24.7019098,4.66905738 25.6284947,4.66905738 C27.0324111,4.66905738 28.1467698,5.02945697 28.9715707,5.75025615 C29.7963716,6.47105533 30.2087721,7.48411885 30.2087721,8.78944672 L30.2087721,13.835041 C30.2157916,14.9395492 30.3667127,15.7751025 30.6615351,16.3417008 L30.6615351,16.5245902 L27.5869581,16.5245902 Z M25.0704379,14.3621926 C25.5196911,14.3621926 25.9338465,14.2599898 26.3129039,14.055584 C26.6919614,13.8511783 26.9727447,13.5768443 27.1552538,13.232582 L27.1552538,11.2315574 L26.0180815,11.2315574 C24.4948321,11.2315574 23.6840704,11.7694672 23.5857962,12.8452869 L23.5752669,13.0281762 C23.5752669,13.4154713 23.7086389,13.7346311 23.9753831,13.9856557 C24.2421272,14.2366803 24.6071455,14.3621926 25.0704379,14.3621926 Z" id="Shape"></path>
                    <path d="M38.9481519,7.79969262 C38.5339966,7.74231557 38.1689783,7.71362705 37.8530971,7.71362705 C36.7018856,7.71362705 35.9472805,8.11168033 35.5892818,8.90778689 L35.5892818,16.5245902 L32.5462929,16.5245902 L32.5462929,4.88422131 L35.4208119,4.88422131 L35.5050468,6.27202869 C36.1157505,5.20338115 36.9616101,4.66905738 38.0426258,4.66905738 C38.3795658,4.66905738 38.695447,4.71567623 38.9902694,4.80891393 L38.9481519,7.79969262 Z" id="Path"></path>
                    <path d="M44.5813666,2.02254098 L44.5813666,4.88422131 L46.5293007,4.88422131 L46.5293007,7.16495902 L44.5813666,7.16495902 L44.5813666,12.9743852 C44.5813666,13.4047131 44.6620918,13.7131148 44.8235422,13.8995902 C44.9849926,14.0860656 45.2938542,14.1793033 45.7501271,14.1793033 C46.087067,14.1793033 46.3853993,14.1542008 46.6451238,14.1039959 L46.6451238,16.460041 C46.0484593,16.6465164 45.4342459,16.7397541 44.8024835,16.7397541 C42.6685305,16.7397541 41.5804952,15.638832 41.5383778,13.4369877 L41.5383778,7.16495902 L39.8747368,7.16495902 L39.8747368,4.88422131 L41.5383778,4.88422131 L41.5383778,2.02254098 L44.5813666,2.02254098 Z" id="Path"></path>
                    <path d="M55.0475637,15.3411885 C54.2964684,16.2735656 53.2575703,16.7397541 51.9308692,16.7397541 C50.7094619,16.7397541 49.7776124,16.3811475 49.1353206,15.6639344 C48.4930288,14.9467213 48.1648634,13.8960041 48.1508242,12.5117828 L48.1508242,4.88422131 L51.1938131,4.88422131 L51.1938131,12.4042008 C51.1938131,13.616291 51.7343209,14.2223361 52.8153366,14.2223361 C53.8472152,14.2223361 54.556193,13.8565574 54.94227,13.125 L54.94227,4.88422131 L57.9957883,4.88422131 L57.9957883,16.5245902 L55.1317987,16.5245902 L55.0475637,15.3411885 Z" id="Path"></path>
                    <path d="M70.5468012,10.8119877 C70.5468012,12.6050205 70.14844,14.0412398 69.3517174,15.1206455 C68.5549948,16.2000512 67.4792438,16.7397541 66.1244645,16.7397541 C64.973253,16.7397541 64.0431583,16.3309426 63.3341805,15.5133197 L63.3341805,21 L60.2911916,21 L60.2911916,4.88422131 L63.1130637,4.88422131 L63.2183574,6.02459016 C63.9554136,5.12090164 64.9170963,4.66905738 66.1034057,4.66905738 C67.5073222,4.66905738 68.5988672,5.19979508 69.3780408,6.26127049 C70.1572144,7.3227459 70.5468012,8.78586066 70.5468012,10.6506148 L70.5468012,10.8119877 Z M67.5038124,10.5860656 C67.5038124,9.50307377 67.3160385,8.66752049 66.9404909,8.07940574 C66.5649432,7.49129098 66.0191707,7.19723361 65.3031733,7.19723361 C64.3485102,7.19723361 63.6921792,7.57018443 63.3341805,8.31608607 L63.3341805,13.0819672 C63.7062184,13.8493852 64.3695689,14.2330943 65.3242321,14.2330943 C66.7772856,14.2330943 67.5038124,13.017418 67.5038124,10.5860656 Z" id="Shape"></path>
                    <polygon id="Path" points="82.1291119 0.860655738 86.0670975 12.2213115 89.9840244 0.860655738 94.1325975 0.860655738 94.1325975 16.5245902 90.9632561 16.5245902 90.9632561 12.2428279 91.2791373 4.85194672 87.1410936 16.5245902 84.9720427 16.5245902 80.8445284 4.86270492 81.1604096 12.2428279 81.1604096 16.5245902 78.0015976 16.5245902 78.0015976 0.860655738"></polygon>
                    <path d="M103.293152,16.5245902 C103.152761,16.244877 103.050977,15.8970287 102.9878,15.4810451 C102.250744,16.3201844 101.292571,16.7397541 100.113282,16.7397541 C98.997168,16.7397541 98.072338,16.4098361 97.3387917,15.75 C96.6052453,15.0901639 96.2384722,14.2581967 96.2384722,13.2540984 C96.2384722,12.0204918 96.6859705,11.0737705 97.5809673,10.4139344 C98.475964,9.75409836 99.769322,9.42059426 101.461041,9.41342213 L102.861448,9.41342213 L102.861448,8.74641393 C102.861448,8.2085041 102.726321,7.77817623 102.456067,7.45543033 C102.185813,7.13268443 101.759374,6.97131148 101.176748,6.97131148 C100.664319,6.97131148 100.262448,7.09682377 99.971135,7.34784836 C99.6798223,7.59887295 99.534166,7.94313525 99.534166,8.38063525 L96.4911771,8.38063525 C96.4911771,7.70645492 96.694745,7.08247951 97.1018808,6.50870902 C97.5090165,5.93493852 98.0846223,5.4848873 98.828698,5.15855533 C99.5727737,4.83222336 100.408104,4.66905738 101.334689,4.66905738 C102.738605,4.66905738 103.852964,5.02945697 104.677765,5.75025615 C105.502566,6.47105533 105.914966,7.48411885 105.914966,8.78944672 L105.914966,13.835041 C105.921986,14.9395492 106.072907,15.7751025 106.367729,16.3417008 L106.367729,16.5245902 L103.293152,16.5245902 Z M100.776632,14.3621926 C101.225885,14.3621926 101.640041,14.2599898 102.019098,14.055584 C102.398156,13.8511783 102.678939,13.5768443 102.861448,13.232582 L102.861448,11.2315574 L101.724276,11.2315574 C100.201026,11.2315574 99.3902646,11.7694672 99.2919904,12.8452869 L99.281461,13.0281762 C99.281461,13.4154713 99.4148331,13.7346311 99.6815772,13.9856557 C99.9483214,14.2366803 100.31334,14.3621926 100.776632,14.3621926 Z" id="Shape"></path>
                    <path d="M114.654346,7.79969262 C114.240191,7.74231557 113.875172,7.71362705 113.559291,7.71362705 C112.40808,7.71362705 111.653475,8.11168033 111.295476,8.90778689 L111.295476,16.5245902 L108.252487,16.5245902 L108.252487,4.88422131 L111.127006,4.88422131 L111.211241,6.27202869 C111.821945,5.20338115 112.667804,4.66905738 113.74882,4.66905738 C114.08576,4.66905738 114.401641,4.71567623 114.696464,4.80891393 L114.654346,7.79969262 Z" id="Path"></path>
                    <polygon id="Path" points="120.255973 11.8555328 119.160918 12.9743852 119.160918 16.5245902 116.117929 16.5245902 116.117929 0 119.160918 0 119.160918 9.15522541 119.750563 8.38063525 122.667199 4.88422131 126.320892 4.88422131 122.203907 9.73616803 126.67889 16.5245902 123.183138 16.5245902"></polygon>
                    <path d="M132.880691,16.7397541 C131.210031,16.7397541 129.849987,16.2161885 128.800559,15.1690574 C127.751132,14.1219262 127.226418,12.7269467 127.226418,10.9841189 L127.226418,10.6828893 C127.226418,9.51383197 127.447535,8.46849385 127.889768,7.546875 C128.332002,6.62525615 128.9585,5.91521516 129.769261,5.41675205 C130.580023,4.91828893 131.504853,4.66905738 132.543751,4.66905738 C134.102099,4.66905738 135.328771,5.17110656 136.223767,6.17520492 C137.118764,7.17930328 137.566262,8.60297131 137.566262,10.446209 L137.566262,11.7156762 L130.311524,11.7156762 C130.409798,12.4759221 130.706376,13.0855533 131.201256,13.5445697 C131.696137,14.0035861 132.322635,14.2330943 133.080749,14.2330943 C134.25302,14.2330943 135.169075,13.7991803 135.828916,12.9313525 L137.324087,14.6419057 C136.867814,15.3017418 136.250091,15.8163422 135.470917,16.185707 C134.691744,16.5550717 133.828335,16.7397541 132.880691,16.7397541 Z M132.533222,7.18647541 C131.929538,7.18647541 131.439922,7.39446721 131.064374,7.81045082 C130.688827,8.22643443 130.448406,8.82172131 130.343112,9.59631148 L134.57592,9.59631148 L134.57592,9.34887295 C134.561881,8.66034836 134.379372,8.12781762 134.028393,7.75128074 C133.677414,7.37474385 133.179024,7.18647541 132.533222,7.18647541 Z" id="Shape"></path>
                    <path d="M142.936243,2.02254098 L142.936243,4.88422131 L144.884177,4.88422131 L144.884177,7.16495902 L142.936243,7.16495902 L142.936243,12.9743852 C142.936243,13.4047131 143.016968,13.7131148 143.178418,13.8995902 C143.339869,14.0860656 143.64873,14.1793033 144.105003,14.1793033 C144.441943,14.1793033 144.740275,14.1542008 145,14.1039959 L145,16.460041 C144.403336,16.6465164 143.789122,16.7397541 143.15736,16.7397541 C141.023407,16.7397541 139.935371,15.638832 139.893254,13.4369877 L139.893254,7.16495902 L138.229613,7.16495902 L138.229613,4.88422131 L139.893254,4.88422131 L139.893254,2.02254098 L142.936243,2.02254098 Z" id="Path"></path>
                </g>
            </g>
        </g>
    </g>
</svg>