<?xml version="1.0" encoding="UTF-8"?>
<svg width="46px" height="46px" viewBox="0 0 46 46" version="1.1" xmlns="http://www.w3.org/2000/svg" xmlns:xlink="http://www.w3.org/1999/xlink">
    <title>Search_hover</title>
    <g id="----Symbols" stroke="none" stroke-width="1" fill="none" fill-rule="evenodd">
        <g id="Search_hover">
            <path d="M19.6871259,1.5 L26.3128741,1.5 C32.0665288,1.5 34.6603227,2.15108765 37.1073673,3.45978143 C39.4495056,4.71237066 41.2876293,6.55049444 42.5402186,8.89263266 C43.8489123,11.3396773 44.5,13.9334712 44.5,19.6871259 L44.5,26.3128741 C44.5,32.0665288 43.8489123,34.6603227 42.5402186,37.1073673 C41.2876293,39.4495056 39.4495056,41.2876293 37.1073673,42.5402186 C34.6603227,43.8489123 32.0665288,44.5 26.3128741,44.5 L19.6871259,44.5 C13.9334712,44.5 11.3396773,43.8489123 8.89263266,42.5402186 C6.55049444,41.2876293 4.71237066,39.4495056 3.45978143,37.1073673 C2.15108765,34.6603227 1.5,32.0665288 1.5,26.3128741 L1.5,19.6871259 C1.5,13.9334712 2.15108765,11.3396773 3.45978143,8.89263266 C4.71237066,6.55049444 6.55049444,4.71237066 8.89263266,3.45978143 C11.3396773,2.15108765 13.9334712,1.5 19.6871259,1.5 Z" id="Rectangle-Copy" stroke="#07A0EC" stroke-width="3" fill="#07A0EC"></path>
            <g id="􀊫" transform="translate(14.000000, 14.000000)" fill="#FFFFFF" fill-rule="nonzero">
                <path d="M0,7.32089552 C0,8.3315565 0.190527449,9.27985075 0.571582347,10.1657783 C0.952637244,11.0517058 1.48223897,11.8304904 2.16038751,12.5021322 C2.83853606,13.173774 3.62325081,13.6982942 4.51453175,14.075693 C5.4058127,14.4530917 6.36167922,14.641791 7.38213132,14.641791 C8.16361679,14.641791 8.90635091,14.5266525 9.61033369,14.2963753 C10.3143165,14.0660981 10.9634015,13.7462687 11.5575888,13.336887 L15.9074273,17.6641791 C16.0301399,17.7793177 16.1689989,17.8640725 16.3240043,17.9184435 C16.4790097,17.9728145 16.6372443,18 16.7987083,18 C17.0312164,18 17.2378902,17.9472281 17.4187298,17.8416844 C17.5995694,17.7361407 17.7416577,17.5922175 17.8449946,17.4099147 C17.9483315,17.2276119 18,17.0181237 18,16.7814499 C18,16.6279318 17.9709365,16.4776119 17.9128095,16.3304904 C17.8546825,16.1833689 17.7707212,16.0490405 17.6609257,15.9275053 L13.3304629,11.6289979 C13.7890205,11.0277186 14.1442411,10.3608742 14.3961249,9.62846482 C14.6480086,8.89605544 14.7739505,8.12686567 14.7739505,7.32089552 C14.7739505,6.31023454 14.583423,5.3619403 14.2023681,4.47601279 C13.8213132,3.59008529 13.2917115,2.81289979 12.613563,2.14445629 C11.9354144,1.47601279 11.1506997,0.951492537 10.2594187,0.570895522 C9.36813778,0.190298507 8.40904198,0 7.38213132,0 C6.36167922,0 5.4058127,0.190298507 4.51453175,0.570895522 C3.62325081,0.951492537 2.83853606,1.47601279 2.16038751,2.14445629 C1.48223897,2.81289979 0.952637244,3.59008529 0.571582347,4.47601279 C0.190527449,5.3619403 0,6.31023454 0,7.32089552 Z M1.76318622,7.32089552 C1.76318622,6.5533049 1.90850377,5.83208955 2.19913886,5.15724947 C2.48977395,4.48240938 2.8934338,3.89072495 3.41011841,3.38219616 C3.92680301,2.87366738 4.52421959,2.47547974 5.20236814,2.18763326 C5.88051668,1.89978678 6.60710441,1.75586354 7.38213132,1.75586354 C8.16361679,1.75586354 8.8934338,1.89978678 9.57158235,2.18763326 C10.2497309,2.47547974 10.8455328,2.87366738 11.3589882,3.38219616 C11.8724435,3.89072495 12.2744887,4.48240938 12.5651238,5.15724947 C12.8557589,5.83208955 13.0010764,6.5533049 13.0010764,7.32089552 C13.0010764,8.08848614 12.8557589,8.80970149 12.5651238,9.48454158 C12.2744887,10.1593817 11.8724435,10.7510661 11.3589882,11.2595949 C10.8455328,11.7681237 10.2497309,12.1663113 9.57158235,12.4541578 C8.8934338,12.7420043 8.16361679,12.8859275 7.38213132,12.8859275 C6.60710441,12.8859275 5.88051668,12.7420043 5.20236814,12.4541578 C4.52421959,12.1663113 3.92680301,11.7681237 3.41011841,11.2595949 C2.8934338,10.7510661 2.48977395,10.1593817 2.19913886,9.48454158 C1.90850377,8.80970149 1.76318622,8.08848614 1.76318622,7.32089552 Z" id="Shape"></path>
            </g>
        </g>
    </g>
</svg>