<?xml version="1.0" encoding="UTF-8"?><svg version="1.1" width="69px" height="69px" viewBox="0 0 69.0 69.0" xmlns="http://www.w3.org/2000/svg" xmlns:xlink="http://www.w3.org/1999/xlink"><defs><clipPath id="i0"><path d="M34.5,0 C53.5538239,0 69,15.4461761 69,34.5 C69,53.5538239 53.5538239,69 34.5,69 C15.4461761,69 0,53.5538239 0,34.5 C0,15.4461761 15.4461761,0 34.5,0 Z"></path></clipPath><clipPath id="i1"><path d="M24.5266431,0 C25.2306418,0 25.9341337,0.103394875 26.669303,0.446143817 C27.5505685,0.85693571 28.0178736,1.50442077 28.3452913,1.98325562 C28.37076,2.02050818 28.3945814,2.05890113 28.4166288,2.09818105 C28.8015727,2.78342551 29,3.52328173 29,4.31914351 C29,5.07534524 28.8200723,5.89920979 28.4166288,6.617272 L28.4049716,6.63779892 L15.8330951,28.2335165 C15.5558544,28.7098171 15.0455947,29.0018823 14.4945345,29 C13.9434743,28.998081 13.435242,28.7022145 13.1614225,28.2240132 L0.820410986,6.67441794 C0.816863116,6.6685893 0.813315247,6.66276067 0.809767377,6.65680533 C0.527331603,6.19140168 0.0905634954,5.47169226 0.0141575862,4.54291232 C-0.056039551,3.68876421 0.135925544,2.83296889 0.565091074,2.09095861 C0.994256604,1.34882162 1.64034903,0.755568185 2.41745921,0.392419029 C3.18126488,0.0354891927 3.95444003,0.0031897333 4.48820561,0.00028516949 L24.5266431,0 Z M13,3 L4.56248481,3 C4.00814678,3 3.79534463,3.03447641 3.64658849,3.10472533 C3.44084552,3.20167402 3.26808817,3.36122462 3.15257434,3.56289864 C3.03706051,3.76470227 2.98482259,3.99851971 3.0038182,4.23259637 C3.01472784,4.3667433 3.06889099,4.52020219 3.3883509,5.05225352 C3.39502504,5.06340003 3.40157082,5.07467614 3.40798825,5.08595226 L13,22 L13,3 Z M24.5938162,3 L16,3 L16,22 L25.8141517,5.05010256 C25.9249163,4.84776348 26,4.55535256 26,4.25674758 C26,4.01453429 25.9500725,3.80419457 25.8384095,3.58740271 C25.7212275,3.41796955 25.6498659,3.32828482 25.5901839,3.26686046 C25.538973,3.21434005 25.49957,3.18620872 25.4438669,3.16014208 C25.2118132,3.05135902 24.9743688,3 24.5938162,3 Z"></path></clipPath></defs><g transform="translate(-49.0 -941.0)"><g transform="translate(48.99999999999909 941.0)"><g clip-path="url(#i0)"><polygon points="0,0 69,0 69,69 0,69 0,0" stroke="none" fill="#0088CC"></polygon></g><g transform="translate(20.00000000000064 22.0)"><g clip-path="url(#i1)"><polygon points="1.73472348e-18,0 29,0 29,29.000009 1.73472348e-18,29.000009 1.73472348e-18,0" stroke="none" fill="#FFFFFF"></polygon></g></g></g></g></svg>