<?xml version="1.0" encoding="UTF-8"?>
<svg width="41px" height="41px" viewBox="0 0 41 41" version="1.1" xmlns="http://www.w3.org/2000/svg" xmlns:xlink="http://www.w3.org/1999/xlink">
    <title>ton_symbol copy 2</title>
    <g id="⌽-Создать-проект" stroke="none" stroke-width="1" fill="none" fill-rule="evenodd">
        <g id="Вознаграждения_доставка" transform="translate(-590.000000, -919.000000)">
            <g id="ton_symbol-copy-2" transform="translate(590.000000, 919.000000)">
                <circle id="Oval" fill="#0088CC" fill-rule="nonzero" cx="20.5" cy="20.5" r="20.5"></circle>
                <path d="M14.7127635,13 L26.3776873,13 C26.7903762,13 27.202768,13.0606108 27.6337293,13.2615326 C28.1503333,13.5023416 28.4242707,13.8819018 28.6162053,14.1625981 C28.6311351,14.1844358 28.6450994,14.206942 28.6580238,14.2299682 C28.8836806,14.6316632 29,15.065372 29,15.5319117 C29,15.9752024 28.8945252,16.4581575 28.6580238,16.8790905 C28.6557955,16.8831758 28.6534928,16.8871125 28.6511902,16.8911235 L21.2814695,29.5506821 C21.1189491,29.8298928 20.8198314,30.0011034 20.4967961,30 C20.1737608,29.9988751 19.8758315,29.8254361 19.7153166,29.5451112 L12.4809306,16.9125898 C12.4788508,16.909173 12.476771,16.9057563 12.4746912,16.9022652 C12.3091254,16.6294424 12.0530889,16.2075437 12.0082993,15.6630865 C11.9671492,15.162379 12.0796805,14.6607059 12.3312603,14.2257344 C12.5828401,13.7906885 12.9615839,13.4429193 13.4171313,13.2300387 C13.9055838,13.0017827 14.4005728,13 14.7127635,13 Z M19.6206897,14.7586207 L14.6745601,14.7586207 C14.3496033,14.7586207 14.2248572,14.778831 14.1376553,14.8200114 C14.0170474,14.8768434 13.9157758,14.9703731 13.8480608,15.0885958 C13.7803458,15.2068944 13.7497236,15.3439598 13.7608589,15.4811772 C13.7672542,15.559815 13.7990051,15.6497737 13.9862747,15.9616659 C13.9901871,15.9682 13.9940243,15.9748102 13.9977862,15.9814203 L19.6206897,25.8965517 L19.6206897,14.7586207 Z M21.3793103,14.7586207 L21.3793103,25.8965517 L27.1324337,15.9604049 C27.1973647,15.8417924 27.2413793,15.6703791 27.2413793,15.4953348 C27.2413793,15.3533477 27.2121115,15.2300451 27.1466538,15.1029602 C27.077961,15.0036373 27.0361283,14.9510635 27.0011423,14.9150561 C26.9711221,14.8842683 26.9480238,14.8677775 26.9153702,14.8524971 C26.7793388,14.7887277 26.6401473,14.7586207 26.4170647,14.7586207 L21.3793103,14.7586207 Z" id="Shape" fill="#FFFFFF"></path>
            </g>
        </g>
    </g>
</svg>