<?xml version="1.0" encoding="UTF-8"?>
<svg width="36px" height="32px" viewBox="0 0 36 32" version="1.1" xmlns="http://www.w3.org/2000/svg" xmlns:xlink="http://www.w3.org/1999/xlink">
    <title>Tonhub</title>
    <defs>
        <linearGradient x1="-0.000198043094%" y1="37.7719691%" x2="102.499629%" y2="36.827371%" id="linearGradient-1">
            <stop stop-color="#9889FE" offset="0%"></stop>
            <stop stop-color="#68A3F1" offset="49.5027%"></stop>
            <stop stop-color="#61A8EA" offset="100%"></stop>
        </linearGradient>
        <linearGradient x1="12.1427603%" y1="48.3378469%" x2="86.0711996%" y2="48.2312468%" id="linearGradient-2">
            <stop stop-color="#B69EFD" offset="0%"></stop>
            <stop stop-color="#9BB7FC" offset="100%"></stop>
        </linearGradient>
        <linearGradient x1="49.9995528%" y1="0%" x2="49.9995528%" y2="99.9997297%" id="linearGradient-3">
            <stop stop-color="#B3C9FA" offset="0%"></stop>
            <stop stop-color="#A3D2F6" offset="100%"></stop>
        </linearGradient>
    </defs>
    <g id="⌽-Создать-проект" stroke="none" stroke-width="1" fill="none" fill-rule="evenodd">
        <g id="Style-guide" transform="translate(-1428.000000, -1572.000000)">
            <g id="logo_round_desktop" transform="translate(1428.000000, 1572.000000)">
                <path d="M12.1774504,0.0433933133 C12.2416917,0.0147464742 12.311429,3.55271368e-15 12.3818991,3.55271368e-15 L23.6180285,3.55271368e-15 C23.6884986,3.55271368e-15 23.7582359,0.0147464742 23.8225994,0.0433933133 L31.3907432,3.41622622 C31.4791666,3.45550986 31.5540335,3.51945154 31.606428,3.60019453 L35.9202468,10.2477117 C36.0383483,10.4298669 36.024181,10.6670192 35.8850728,10.8338236 L18.3849234,31.820232 C18.1849935,32.0599227 17.8149341,32.0599227 17.6151264,31.820232 L0.114976899,10.8338236 C-0.0241312683,10.6670192 -0.0384206938,10.4298669 0.079802929,10.2477117 L4.39349958,3.60019453 C4.44601627,3.51945154 4.52088309,3.45550986 4.60906228,3.41622622 L12.1774504,0.0433933133 Z" id="Path" fill="url(#linearGradient-1)"></path>
                <path d="M12.1774504,0.0433933133 C12.2416917,0.0147464742 12.311429,3.55271368e-15 12.3818991,3.55271368e-15 L23.6180285,3.55271368e-15 C23.6884986,3.55271368e-15 23.7582359,0.0147464742 23.8225994,0.0433933133 L31.3907432,3.41622622 C31.4791666,3.45550986 31.5540335,3.51945154 31.606428,3.60019453 L35.9202468,10.2477117 C36.0383483,10.4298669 36.024181,10.6670192 35.8850728,10.8338236 L0.114976899,10.8338236 C-0.0241312683,10.6670192 -0.0384206938,10.4298669 0.079802929,10.2477117 L4.39349958,3.60019453 C4.44601627,3.51945154 4.52088309,3.45550986 4.60906228,3.41622622 L12.1774504,0.0433933133 Z" id="Path" fill="url(#linearGradient-2)"></path>
                <polygon id="Path" fill="#95B0FF" fill-rule="nonzero" points="18.0003302 6.60496995 24.8278665 15.5337183 11.172916 15.5337183"></polygon>
                <path d="M17.5926541,31.7671689 C17.801866,32.0173755 18.1917108,32.0122988 18.3940833,31.7567738 L20.3142401,29.333638 L24.8278665,15.5340809 L11.172916,15.5340809 L15.5570827,29.333638 L17.5926541,31.7671689 Z" id="Path" fill="url(#linearGradient-3)" fill-rule="nonzero"></path>
                <polygon id="Path" fill="#D7D6FC" fill-rule="nonzero" points="18.0003302 6.60484907 5.89694255 4.83140425 11.1727938 15.5337183"></polygon>
                <polygon id="Path" fill="#BDB3F9" fill-rule="nonzero" points="0.114854768 10.8338236 5.89633189 4.83140425 11.1721832 15.5337183"></polygon>
                <polygon id="Path" fill="#6E97FF" fill-rule="nonzero" points="17.9998417 6.60484907 30.1031072 4.83140425 24.8272559 15.5337183"></polygon>
                <polygon id="Path" fill="#A4CCFA" fill-rule="nonzero" points="35.885195 10.8338236 30.10384 4.83140425 24.8279887 15.5337183"></polygon>
                <path d="M35.8849507,10.8345488 L30.1035957,4.83212948 L31.4071089,3.42553342 C31.4315352,3.43798331 31.5029823,3.46856412 31.5751623,3.55680122 C31.6679825,3.67005897 34.3762561,7.64628859 35.9201247,10.2485578 C36.0617976,10.4871606 35.9897398,10.7095664 35.8849507,10.8345488 Z" id="Path" fill="#799FF0" fill-rule="nonzero"></path>
                <path d="M0.115099031,10.8345488 L5.89633189,4.83212948 L4.59294088,3.42553342 C4.56839238,3.43798331 4.49706738,3.46856412 4.42476533,3.55680122 C4.33194513,3.67005897 1.62379367,7.64628859 0.079802929,10.2485578 C-0.0617478756,10.4871606 0.010309911,10.7095664 0.115099031,10.8345488 Z" id="Path" fill="#B28DFF" fill-rule="nonzero"></path>
                <path d="M7.90039328,17.3666325 C7.85190694,17.3891148 7.80525258,17.3326673 7.83737325,17.2902409 L9.38759272,15.2439863 C9.84265596,14.6432488 9.92558348,13.8435548 9.60291115,13.16425 L8.50433524,10.8502623 C8.48161872,10.8023967 8.53889855,10.7563442 8.58176683,10.7881337 L10.6536114,12.3191078 C11.2619501,12.7686335 12.0715621,12.8504644 12.7594086,12.5318438 L15.1022637,11.4468901 C15.1507501,11.4244078 15.1972823,11.4809762 15.1652838,11.5232817 L13.6150643,13.5695363 C13.1598789,14.1703947 13.0770735,14.9699678 13.3996237,15.6493935 L14.4981996,17.9632604 C14.5209162,18.011126 14.4637585,18.0571785 14.420768,18.0255098 L12.3489235,16.4944148 C11.7407069,16.0448891 10.9309728,15.9630583 10.2431263,16.2816788 L7.90039328,17.3666325 Z" id="Path" fill="#FFFFFF" fill-rule="nonzero"></path>
            </g>
        </g>
    </g>
</svg>