<?xml version="1.0" encoding="UTF-8"?>
<svg width="60px" height="60px" viewBox="0 0 60 60" version="1.1" xmlns="http://www.w3.org/2000/svg" xmlns:xlink="http://www.w3.org/1999/xlink">
    <title>Wallet</title>
    <g id="⌽-Создать-проект" stroke="none" stroke-width="1" fill="none" fill-rule="evenodd">
        <g id="Style-guide" transform="translate(-1627.000000, -1557.000000)">
            <g id="Wallet" transform="translate(1627.000000, 1557.000000)">
                <rect id="Rectangle-Copy-6" x="0" y="0" width="60" height="60"></rect>
                <path d="M59,46.3320945 C59,48.0949402 58.3057708,49.7868721 57.0675803,51.0416667 C55.8311641,52.2946632 54.1442415,53 52.3839218,53 L7.61607817,53 C5.85575845,53 4.16883591,52.2946632 2.93241966,51.0416667 C1.69422916,49.7868721 1,48.0949402 1,46.3320945 L1,16 C1,11.581722 4.581722,8 9,8 L51,8 C55.418278,8 59,11.581722 59,16 L59,46.3320945 Z M16.1041894,29 L3,29 L3,46.3320945 C3,47.5691216 3.48715565,48.7563868 4.35602077,49.6369034 C5.1592537,50.4509076 6.23564495,50.9328459 7.37178324,50.9934865 L7.61607817,51 L52.3839218,51 C53.6091912,51 54.7833725,50.5090508 55.6439792,49.6369034 C56.45492,48.8150879 56.9333494,47.7260603 56.9935358,46.5787603 L57,46.3320945 L57,29 L42.1984354,29 C41.0601846,29 39.9639885,29.4282948 39.1185486,30.1991852 L38.9412971,30.3695886 L36.151862,33.19643 C32.8252585,36.5676431 27.4623728,36.6350673 24.054318,33.3987027 L23.848138,33.19643 L22.2589284,31.5859091 C20.6984394,30.004494 18.6105932,29.0859748 16.418073,29.0057405 L16.1041894,29 Z M36.2234336,21 L23.7552593,21.0003963 C23.4254004,21.0033799 22.960212,21.0287412 22.5004919,21.2435705 C22.0181477,21.4689735 21.6171248,21.8371999 21.3507462,22.2978368 C21.0843676,22.758395 20.9652168,23.2895785 21.0087875,23.8197396 C21.0562118,24.3962239 21.3273093,24.8429402 21.5026142,25.1318115 C21.5048164,25.1355079 21.5070185,25.1391257 21.5092206,25.1427435 L25.372,31.89 L25.4565177,31.972003 C26.2634131,32.7302819 27.210017,33.249572 28.208265,33.5298734 L23.244793,24.3174435 C23.2409425,24.3103218 23.237015,24.3032 23.2330105,24.2961601 C23.0413346,23.9601277 23.0088367,23.8632063 23.0022909,23.7784819 C22.9908936,23.630644 23.0222363,23.4829699 23.0915446,23.3555149 C23.1608529,23.2281419 23.2645073,23.1273731 23.3879531,23.0661423 C23.4772068,23.0217746 23.6048881,23 23.9374909,23 L29,23 L29.0000262,33.7006835 C29.6629753,33.8017429 30.3380353,33.8016921 31.0009722,33.7005312 L31,23 L36.1562897,23 C36.3846213,23 36.5270879,23.0324373 36.6663201,23.1011424 C36.699742,23.1176055 36.7233838,23.1353727 36.7541104,23.1685434 C36.7899195,23.2073378 36.8327365,23.2639808 36.9030457,23.3709912 C36.9700435,23.5079124 37,23.6407585 37,23.7937353 C37,23.9823279 36.9549498,24.1670085 36.888491,24.2948016 L31.8127959,33.523922 C32.8804899,33.2203017 33.888308,32.6428833 34.7282609,31.7916667 L34.775,31.744 L38.630672,25.1200144 C38.6331101,25.1157675 38.6355481,25.1115992 38.6379076,25.1072736 C38.8883208,24.6615796 39,24.1502153 39,23.6808485 C39,23.1868652 38.8768382,22.727644 38.6379076,22.3023197 C38.6242229,22.277939 38.6094372,22.2541089 38.5936291,22.2309866 C38.3904043,21.9337787 38.1003529,21.5318913 37.5533605,21.2769169 C37.0970485,21.0641761 36.6603984,21 36.2234336,21 Z M51,10 L9,10 C5.76160306,10 3.12242824,12.5655749 3.00413847,15.7750617 L3,16 L3,27 L11.9666918,27.0003638 C14.4784402,19.4470217 21.60311,14 30,14 C38.39689,14 45.5215598,19.4470217 48.0333082,27.0003638 L57,27 L57,16 C57,12.7616031 54.4344251,10.1224282 51.2249383,10.0041385 L51,10 Z" id="Combined-Shape" fill="#07A0EC" fill-rule="nonzero"></path>
            </g>
        </g>
    </g>
</svg>