<?xml version="1.0" encoding="UTF-8"?><svg version="1.1" width="38px" height="38px" viewBox="0 0 38.0 38.0" xmlns="http://www.w3.org/2000/svg" xmlns:xlink="http://www.w3.org/1999/xlink"><defs><clipPath id="i0"><path d="M1920,0 L1920,5458 L0,5458 L0,0 L1920,0 Z"></path></clipPath><clipPath id="i1"><path d="M9.5,19 L9.5,9.5 L0,9.5 L0,0 L38,0 L38,38 L28.5,38 L28.5,28.5 L19,28.5 L19,19 L9.5,19 Z M9.5,28.5 L19,28.5 L19,38 L9.5,38 L9.5,28.5 Z M9.5,19 L9.5,28.5 L0,28.5 L0,19 L9.5,19 Z"></path></clipPath></defs><g transform="translate(-277.0 -5152.0)"><g clip-path="url(#i0)"><g transform="translate(0.0 4798.0)"><g transform="translate(277.0 354.0)"><g clip-path="url(#i1)"><polygon points="0,0 38,0 38,38 0,38 0,0" stroke="none" fill="#1D96DC"></polygon></g></g></g></g></g></svg>