<svg viewBox="0 0 36 36" xmlns="http://www.w3.org/2000/svg">
    <defs>
        <clipPath id="i0">
            <path d="M1920,0 L1920,1333 L0,1333 L0,0 L1920,0 Z"></path>
        </clipPath>
        <clipPath id="i2">
            <path d="M1.5,0 C2.27969612,0 2.92044868,0.594888083 2.99313342,1.35553999 L3,1.5 L3,10 L11.5,10 C12.3284271,10 13,10.6715729 13,11.5 C13,12.2796961 12.4051119,12.9204487 11.64446,12.9931334 L11.5,13 L1.5,13 C0.720303883,13 0.0795513218,12.4051119 0.00686657806,11.64446 L0,11.5 L0,1.5 C0,0.671572875 0.671572875,0 1.5,0 Z"></path>
        </clipPath>
    </defs>
    <g transform="translate(-268.0 -867.0)">
        <g clip-path="url(#i0)">
            <g transform="translate(268.0 867.0)">
                <g transform="translate(15.595238095239665 27.692388155423757) rotate(-135.0)">
                    <g clip-path="url(#i2)">
                        <polygon points="0,0 13,0 13,13 0,13 0,0" stroke="none"></polygon>
                    </g>
                </g>
            </g>
        </g>
    </g>
</svg>