<?xml version="1.0" encoding="UTF-8"?><svg version="1.1" width="20px" height="19px" viewBox="0 0 20.0 19.0" xmlns="http://www.w3.org/2000/svg" xmlns:xlink="http://www.w3.org/1999/xlink"><defs><clipPath id="i0"><path d="M1920,0 L1920,1333 L0,1333 L0,0 L1920,0 Z"></path></clipPath><clipPath id="i1"><path d="M15.8010521,0 C16.7001435,0 17.4621393,0.166666667 18.0870397,0.5 C18.7119401,0.833333333 19.1869919,1.31410256 19.5121951,1.94230769 C19.8373984,2.57051282 20,3.33333333 20,4.23076923 L20,11.2403846 C20,12.1378205 19.8373984,12.900641 19.5121951,13.5288462 C19.1869919,14.1570513 18.7119401,14.6362179 18.0870397,14.9663462 C17.4621393,15.2964744 16.7001435,15.4615385 15.8010521,15.4615385 L10.167384,15.4615385 L7.05882353,18.2403846 C6.75912641,18.4967949 6.50884744,18.6875 6.30798661,18.8125 C6.10712578,18.9375 5.88554121,19 5.6432329,19 C5.29890005,19 5.03427387,18.8878205 4.84935438,18.6634615 C4.66443488,18.4391026 4.57197513,18.1410256 4.57197513,17.7692308 L4.57197513,15.4615385 L4.17025347,15.4615385 C3.29029173,15.4615385 2.53945481,15.2980769 1.91774271,14.9711538 C1.29603061,14.6442308 0.820978798,14.1650641 0.492587279,13.5336538 C0.16419576,12.9022436 0,12.1378205 0,11.2403846 L0,4.23076923 C0,3.33333333 0.162601626,2.56891026 0.487804878,1.9375 C0.81300813,1.30608974 1.28805994,0.825320513 1.91296031,0.495192308 C2.53786067,0.165064103 3.29985653,0 4.19894787,0 Z M15.7627929,1.64423077 L4.23720708,1.64423077 C3.3508688,1.64423077 2.6956799,1.86538462 2.27164036,2.30769231 C1.84760083,2.75 1.63558106,3.40064103 1.63558106,4.25961538 L1.63558106,11.2115385 C1.63558106,12.0705128 1.84760083,12.7211538 2.27164036,13.1634615 C2.6956799,13.6057692 3.3508688,13.8269231 4.23720708,13.8269231 L5.33715925,13.8269231 C5.59222063,13.8269231 5.77554599,13.8814103 5.88713534,13.9903846 C5.99872469,14.099359 6.05451937,14.2852564 6.05451937,14.5480769 L6.05451937,17.1538462 L8.93352463,14.2884615 C9.11206759,14.0961538 9.28263989,13.9711538 9.44524151,13.9134615 C9.60784314,13.8557692 9.82305117,13.8269231 10.0908656,13.8269231 L15.7627929,13.8269231 C16.6491312,13.8269231 17.3059142,13.6057692 17.733142,13.1634615 C18.1603698,12.7211538 18.3739837,12.0705128 18.3739837,11.2115385 L18.3739837,4.25961538 C18.3739837,3.40064103 18.1603698,2.75 17.733142,2.30769231 C17.3059142,1.86538462 16.6491312,1.64423077 15.7627929,1.64423077 Z"></path></clipPath></defs><g transform="translate(-932.0 -122.0)"><g clip-path="url(#i0)"><g transform="translate(932.0 121.0)"><g transform="translate(0.0 1.0)"><g clip-path="url(#i1)"><polygon points="0,0 20,0 20,19 0,19 0,0" stroke="none" fill="#000000"></polygon></g></g></g></g></g></svg>