<?xml version="1.0" encoding="UTF-8"?><svg version="1.1" width="14px" height="20px" viewBox="0 0 14.0 20.0" xmlns="http://www.w3.org/2000/svg" xmlns:xlink="http://www.w3.org/1999/xlink"><defs><clipPath id="i0"><path d="M1920,0 L1920,1333 L0,1333 L0,0 L1920,0 Z"></path></clipPath><clipPath id="i1"><path d="M7,0 C7.66360856,0 8.3058104,0.115864528 8.9266055,0.347593583 C9.54740061,0.579322638 10.1039755,0.930481283 10.5963303,1.40106952 C11.088685,1.87165775 11.4793578,2.46345811 11.7683486,3.17647059 C12.0573394,3.88948307 12.2018349,4.72370766 12.2018349,5.67914439 L12.201,8.087 L12.3346101,8.10641711 C12.7299924,8.17700535 13.0540902,8.31818182 13.3069037,8.52994652 L13.42737,8.64171123 C13.8091233,9.03386809 14,9.64349376 14,10.4705882 L14,17.5614973 C14,18.3957219 13.8091233,19.0106952 13.42737,19.4064171 C13.0456167,19.802139 12.4658512,20 11.6880734,20 L2.30122324,20 C1.53771662,20 0.963302752,19.802139 0.577981651,19.4064171 C0.19266055,19.0106952 0,18.3957219 0,17.5614973 L0,10.4705882 C0,9.64349376 0.19266055,9.03386809 0.577981651,8.64171123 C0.847706422,8.36720143 1.21008665,8.18877005 1.66512232,8.10641711 L1.798,8.087 L1.79816514,5.67914439 C1.79816514,4.84313725 1.90879444,4.09993316 2.13005304,3.44953209 L2.23165138,3.17647059 C2.5206422,2.46345811 2.90953109,1.87165775 3.39831804,1.40106952 C3.88710499,0.930481283 4.44189602,0.579322638 5.06269113,0.347593583 C5.68348624,0.115864528 6.32925586,0 7,0 Z M11.5168196,9.72192513 L2.49388379,9.72192513 C2.26554536,9.72192513 2.09429154,9.7771836 1.98012232,9.88770053 C1.86595311,9.99821747 1.8088685,10.1889483 1.8088685,10.459893 L1.8088685,17.5721925 C1.8088685,17.8431373 1.86595311,18.0356506 1.98012232,18.1497326 C2.09429154,18.2638146 2.26554536,18.3208556 2.49388379,18.3208556 L11.5168196,18.3208556 C11.745158,18.3208556 11.9146279,18.2638146 12.0252294,18.1497326 C12.1358308,18.0356506 12.1911315,17.8431373 12.1911315,17.5721925 L12.1911315,10.459893 C12.1911315,10.1889483 12.1358308,9.99821747 12.0252294,9.88770053 C11.9146279,9.7771836 11.745158,9.72192513 11.5168196,9.72192513 Z M7,1.71122995 C6.38634047,1.71122995 5.81906218,1.85383244 5.29816514,2.13903743 C4.77726809,2.42424242 4.3598369,2.84670232 4.04587156,3.40641711 C3.73190622,3.96613191 3.57492355,4.65597148 3.57492355,5.47593583 L3.574,8.053 L10.414,8.053 L10.4143731,5.47593583 C10.4143731,4.74707863 10.2903374,4.12103607 10.042266,3.59780815 L9.94342508,3.40641711 C9.62945973,2.84670232 9.21559633,2.42424242 8.70183486,2.13903743 C8.18807339,1.85383244 7.62079511,1.71122995 7,1.71122995 Z"></path></clipPath></defs><g transform="translate(-995.0 -121.0)"><g clip-path="url(#i0)"><g transform="translate(992.0 121.0)"><g transform="translate(3.0 0.0)"><g clip-path="url(#i1)"><polygon points="0,0 14,0 14,20 0,20 0,0" stroke="none" fill="#000000"></polygon></g></g></g></g></g></svg>