<?xml version="1.0" encoding="UTF-8"?><svg version="1.1" width="13px" height="20px" viewBox="0 0 13.0 20.0" xmlns="http://www.w3.org/2000/svg" xmlns:xlink="http://www.w3.org/1999/xlink"><defs><clipPath id="i0"><path d="M1920,0 L1920,1333 L0,1333 L0,0 L1920,0 Z"></path></clipPath><clipPath id="i1"><path d="M10.7144246,0.376635107 C10.9106451,0.622744118 10.9795413,0.94687505 10.9003864,1.25151692 L8.99821515,8.5701948 L11.6845831,10.3154776 C12.1477681,10.6162734 12.2794105,11.2356022 11.9786147,11.6987872 C11.9200757,11.7889292 11.8473872,11.8690444 11.7633469,11.936049 L2.83094064,19.0577789 C2.39910871,19.4020747 1.76993283,19.3311127 1.42563699,18.8992808 C1.22941641,18.6531718 1.16052026,18.3290408 1.23967512,18.024399 L3.14144276,10.7035392 L0.455478428,8.96043832 C-0.00770653667,8.65964249 -0.139348938,8.04031368 0.161446895,7.57712872 C0.21998584,7.48698665 0.292674343,7.40687151 0.376714688,7.33986688 L9.30912091,0.218137006 C9.74095284,-0.12615884 10.3701287,-0.0551968231 10.7144246,0.376635107 Z M8.21003077,3.651 L2.70803077,8.038 L5.43973232,9.81080587 L3.92903077,15.623 L9.43103077,11.237 L6.69995941,9.46208591 L8.21003077,3.651 Z"></path></clipPath></defs><g transform="translate(-1116.0 -121.0)"><g clip-path="url(#i0)"><g transform="translate(1112.0 120.9999999999998)"><g transform="translate(3.999999999999999 0.0)"><g clip-path="url(#i1)"><polygon points="0,8.32667268e-17 12.1400615,8.32667268e-17 12.1400615,19.2759159 0,19.2759159 0,8.32667268e-17" stroke="none" fill="#000000"></polygon></g></g></g></g></g></svg>