<?xml version="1.0" encoding="UTF-8"?><svg version="1.1" width="19px" height="19px" viewBox="0 0 19.0 19.0" xmlns="http://www.w3.org/2000/svg" xmlns:xlink="http://www.w3.org/1999/xlink"><defs><clipPath id="i0"><path d="M1920,0 L1920,1333 L0,1333 L0,0 L1920,0 Z"></path></clipPath><clipPath id="i1"><path d="M8.02777778,0 C10.9421471,0 13.4937954,1.55299341 14.9003159,3.87657357 L15.0393543,4.11546091 C17.3479249,5.52601352 18.8888889,8.06916216 18.8888889,10.9722222 C18.8888889,15.4058415 15.2947304,19 10.8611111,19 C7.8467673,19 5.22045694,17.3386313 3.8478994,14.8816134 L3.71011017,14.7967538 C1.47911971,13.370728 0,10.8719863 0,8.02777778 C0,3.59415854 3.59415854,0 8.02777778,0 Z M16.0546434,7.91071744 L16.0555556,8.02777778 C16.0555556,12.461397 12.461397,16.0555556 8.02777778,16.0555556 L7.79983928,16.0523818 L7.6014309,16.044428 C8.54144244,16.648852 9.66026927,17 10.8611111,17 C14.1901609,17 16.8888889,14.301272 16.8888889,10.9722222 C16.8888889,9.85458917 16.5847184,8.80799893 16.0546434,7.91071744 Z M8.02777778,2 C4.69872804,2 2,4.69872804 2,8.02777778 C2,11.3568275 4.69872804,14.0555556 8.02777778,14.0555556 C11.3568275,14.0555556 14.0555556,11.3568275 14.0555556,8.02777778 C14.0555556,4.69872804 11.3568275,2 8.02777778,2 Z M10.381966,5 C10.9342508,5 11.381966,5.44771525 11.381966,6 C11.381966,6.1552451 11.3458209,6.30835816 11.2763932,6.4472136 L8.89442719,11.2111456 C8.64743794,11.7051241 8.0467649,11.9053485 7.5527864,11.6583592 C7.359259,11.5615955 7.20233651,11.404673 7.10557281,11.2111456 L4.7236068,6.4472136 C4.47661755,5.9532351 4.6768419,5.35256206 5.17082039,5.10557281 C5.30967583,5.03614509 5.46278889,5 5.61803399,5 L10.381966,5 Z"></path></clipPath></defs><g transform="translate(-1232.0 -121.0)"><g clip-path="url(#i0)"><g transform="translate(1232.0 121.0)"><g transform=""><g clip-path="url(#i1)"><polygon points="0,0 18.8888889,0 18.8888889,19 0,19 0,0" stroke="none" fill="#000000"></polygon></g></g></g></g></g></svg>