<?xml version="1.0" encoding="UTF-8"?><svg version="1.1" width="18px" height="18px" viewBox="0 0 18.0 18.0" xmlns="http://www.w3.org/2000/svg" xmlns:xlink="http://www.w3.org/1999/xlink"><defs><clipPath id="i0"><path d="M1920,0 L1920,1333 L0,1333 L0,0 L1920,0 Z"></path></clipPath><clipPath id="i1"><path d="M14.0761294,14 C14.1838609,14 14.2901128,14.0250827 14.3864707,14.0732617 L16.9984301,15.3792413 C17.3412236,15.5506381 17.4801682,15.9674718 17.3087714,16.3102653 C17.2416228,16.4445626 17.1327273,16.5534581 16.9984301,16.6206067 L14.3864707,17.9265863 C14.0436772,18.0979831 13.6268435,17.9590386 13.4554467,17.616245 C13.4072677,17.519887 13.3821851,17.4136351 13.3821851,17.3059036 L13.3821851,14.6939443 C13.3821851,14.3106895 13.6928745,14 14.0761294,14 Z M9.82562387,0.981870841 L10.6886373,0.985963441 L11.4470224,1.00078805 L11.9022812,1.01750684 L12.3227321,1.04030567 L12.7130524,1.06970864 L13.0779194,1.10623984 L13.4220106,1.15042338 L13.7500034,1.20278336 L14.0665751,1.26384387 L14.2220397,1.29780061 L14.5302498,1.37289463 L14.6841647,1.41416293 C16.8029131,1.99890712 18,3.33462376 18,5.5 C18,7.66537624 16.8029131,9.00109288 14.6841647,9.58583707 L14.5302498,9.62710537 L14.2220397,9.70219939 L14.0665751,9.73615613 L13.7500034,9.79721664 L13.4220106,9.84957662 L13.0779194,9.89376016 L12.7130524,9.93029136 L12.3227321,9.95969433 L11.9022812,9.98249316 L11.4470224,9.99921195 L10.6886373,10.0140366 L9.82562387,10.0181292 L8.84219603,10.0132586 L7.40590513,10.0009365 L7,10 L7,9.99087084 L6.40200187,10.0083218 L5.90742073,10.0320641 L5.46205139,10.0646499 C4.82682286,10.1205595 4.33012143,10.2090049 3.84791471,10.3420871 C2.54094279,10.7027926 2,11.3063798 2,12.5 C2,13.6936202 2.54094279,14.2972074 3.84791471,14.6579129 C4.33012143,14.7909951 4.82682286,14.8794405 5.46205139,14.9353501 L5.90742073,14.9679359 L6.40200187,14.9916782 L6.95396157,15.0073739 L7.57146655,15.0158196 L8.49939788,15.0172221 L10.0000237,15.006887 C10.5093276,15.0033794 10.9317284,15.3838699 10.9924974,15.8773883 L11,16 C11,16.5533195 10.5533287,17.0028658 10.0000206,17.0064159 L8.17437613,17.0181292 L7.31136275,17.0140366 L6.55297765,16.999212 L6.09771877,16.9824932 L5.67726788,16.9596943 L5.28694761,16.9302914 L4.92208056,16.8937602 L4.57798936,16.8495766 L4.24999661,16.7972166 L3.93342494,16.7361561 L3.77796033,16.7021994 L3.46975018,16.6271054 L3.31583529,16.5858371 C1.19708686,16.0010929 0,14.6653762 0,12.5 C0,10.3346238 1.19708686,8.99890712 3.31583529,8.41416293 L3.46975018,8.37289463 L3.77796033,8.29780061 L3.93342494,8.26384387 L4.24999661,8.20278336 L4.57798936,8.15042338 L4.92208056,8.10623984 L5.28694761,8.06970864 L5.67726788,8.04030567 L6.09771877,8.01750684 L6.55297765,8.00078805 L7.31136275,7.98596344 L8.17437613,7.98187084 L9.15780397,7.9867414 L10.5940949,7.99906348 L11,8 L11.5979981,7.99167823 L12.0925793,7.9679359 L12.5379486,7.93535011 C13.1731771,7.87944047 13.6698786,7.79099507 14.1520853,7.65791293 C15.4590572,7.29720742 16,6.69362024 16,5.5 C16,4.30637976 15.4590572,3.70279258 14.1520853,3.34208707 C13.6698786,3.20900493 13.1731771,3.12055953 12.5379486,3.06464989 L12.0925793,3.0320641 L11.5979981,3.00832177 L11.0460384,2.99262611 L10.4285334,2.98418036 L9.50060212,2.98277788 L7.99997628,2.99311298 C7.49067236,2.99662065 7.06827156,2.61613009 7.00750261,2.12261169 L7,2 C7,1.44668045 7.44667126,0.997134164 7.99997942,0.993584147 L9.82562387,0.981870841 Z M2,0 C3.1045695,0 4,0.8954305 4,2 C4,3.1045695 3.1045695,4 2,4 C0.8954305,4 0,3.1045695 0,2 C0,0.8954305 0.8954305,0 2,0 Z"></path></clipPath></defs><g transform="translate(-1053.0 -122.0)"><g clip-path="url(#i0)"><g transform="translate(1052.0 121.0)"><g transform="translate(1.0 1.0)"><g clip-path="url(#i1)"><polygon points="0,0 18,0 18,18 0,18 0,0" stroke="none" fill="#000000"></polygon></g></g></g></g></g></svg>