<?xml version="1.0" encoding="UTF-8"?><svg version="1.1" width="20px" height="17px" viewBox="0 0 20.0 17.0" xmlns="http://www.w3.org/2000/svg" xmlns:xlink="http://www.w3.org/1999/xlink"><defs><clipPath id="i0"><path d="M1920,0 L1920,1333 L0,1333 L0,0 L1920,0 Z"></path></clipPath><clipPath id="i1"><path d="M2.54193418,5.50334534 C2.72751951,5.50334534 2.88883598,5.60542117 3.02588361,5.80957283 L4.91028846,8.52187339 C5.07588768,8.76102247 5.12157022,8.97392349 5.04733609,9.16057643 C4.97310196,9.34722937 4.78466147,9.44055584 4.48201463,9.44055584 L3.27428243,9.44055584 C3.38277847,10.2921599 3.62974971,11.079602 4.01519616,11.8028821 C4.40064261,12.5261623 4.89458509,13.1619489 5.49702361,13.7102419 C6.09946213,14.2585349 6.78327268,14.6857952 7.54845526,14.9920226 C8.31363784,15.2982501 9.13021327,15.4513639 9.99818157,15.4513639 C11.0031975,15.4513639 11.9411172,15.2442958 12.8119406,14.8301595 C13.6827641,14.4160233 14.426533,13.8560645 15.0432473,13.1502831 C15.2088465,12.9752959 15.3901491,12.8775948 15.5871551,12.8571796 C15.784161,12.8367645 15.9654636,12.8965517 16.1310628,13.0365414 C16.2909517,13.1706982 16.3751789,13.3456854 16.3837444,13.5615028 C16.3923099,13.7773203 16.3109378,13.9785555 16.1396283,14.1652084 C15.3858664,15.0284783 14.4779258,15.716761 13.4158067,16.2300566 C12.3536876,16.7433522 11.2144792,17 9.99818157,17 C8.93606247,17 7.93104655,16.8045977 6.9831338,16.4137931 C6.03522106,16.0229885 5.18723888,15.4834448 4.43918725,14.7951621 C3.69113563,14.1068794 3.08013163,13.304855 2.60617526,12.389089 C2.13221888,11.473323 1.83813752,10.4904786 1.72393117,9.44055584 L0.60185373,9.44055584 C0.293496572,9.44055584 0.103628507,9.34722937 0.0322495354,9.16057643 C-0.0391294363,8.97392349 0.00798068503,8.75810602 0.173579899,8.51312403 L2.04941928,5.80957283 C2.19217722,5.60542117 2.35634886,5.50334534 2.54193418,5.50334534 Z M9.99818157,0 C11.0603007,0 12.0653166,0.195402299 13.0132293,0.586206897 C13.9611421,0.977011494 14.8091243,1.51655516 15.5571759,2.20483788 C16.3052275,2.8931206 16.9148039,3.69514496 17.3859051,4.61091096 C17.8570064,5.52667696 18.1496601,6.50952136 18.2638665,7.55944416 L19.3945094,7.55944416 C19.6971563,7.55944416 19.8870243,7.65277063 19.9641136,7.83942357 C20.0412029,8.02607651 19.9940928,8.24189398 19.8227832,8.48687597 L17.9383784,11.1904272 C17.8013308,11.3945788 17.6385867,11.4951964 17.4501462,11.4923416 C17.2617057,11.4893635 17.0989617,11.3887459 16.9619141,11.1904272 L15.0860747,8.47812661 C14.9147651,8.23897753 14.8690826,8.02607651 14.9490271,7.83942357 C15.0289715,7.65277063 15.217412,7.55944416 15.5143485,7.55944416 L16.7220807,7.55944416 C16.6135847,6.71367301 16.3666134,5.92623091 15.981167,5.19711786 C15.5957205,4.4680048 15.1017781,3.83075999 14.4993395,3.28538343 C13.896901,2.74000686 13.2130905,2.31566306 12.4479079,2.01235203 C11.6827253,1.709041 10.8661499,1.55738549 9.99818157,1.55738549 C8.99316565,1.55738549 8.05667354,1.76299537 7.18870524,2.17421513 C6.32073695,2.58543489 5.57839564,3.14101904 4.96168132,3.84096758 C4.79608211,4.01595471 4.61477952,4.11219763 4.41777356,4.12969635 C4.2207676,4.14719506 4.03946501,4.08886601 3.87386579,3.95470921 C3.7139769,3.82055241 3.62974971,3.64556528 3.62118423,3.42974781 C3.61261876,3.21393035 3.69684595,3.01269514 3.87386579,2.8260422 C4.62762774,1.96277235 5.53414068,1.27594785 6.59340462,0.765568708 C7.65266856,0.255189569 8.78759421,0 9.99818157,0 Z"></path></clipPath></defs><g transform="translate(-1172.0 -122.0)"><g clip-path="url(#i0)"><g transform="translate(1172.0 121.0)"><g transform="translate(2.753353101070388e-13 1.0000000000000142)"><g clip-path="url(#i1)"><polygon points="0,0 20,0 20,17 0,17 0,0" stroke="none" fill="#000000"></polygon></g></g></g></g></g></svg>