<?xml version="1.0" encoding="UTF-8"?>
<svg width="54px" height="53px" viewBox="0 0 54 53" version="1.1" xmlns="http://www.w3.org/2000/svg" xmlns:xlink="http://www.w3.org/1999/xlink">
    <title>icon/categories/Business</title>
    <g id="⎋-Style-guide" stroke="none" stroke-width="1" fill="none" fill-rule="evenodd">
        <g id="Style-guide" transform="translate(-934.000000, -190.000000)">
            <g id="icon/categories/Business" transform="translate(932.000000, 187.000000)">
                <rect id="Rectangle-Copy-6" x="0" y="0" width="60" height="60"></rect>
                <g id="monitoring_FILL0_wght400_GRAD0_opsz40" transform="translate(2.962284, 2.999605)" fill="#07A0EC" fill-rule="nonzero">
                    <path d="M0,36.3633 L0,29.3708333 L20.6117,8.90753333 L32.3883,20.6841333 L53,0 L53,6.92003333 L32.3883,27.6041667 L20.6117,15.8258 L0,36.3633 Z M48.0674667,53 L48.0674667,23.7758 L53,18.8450333 L53,53 L48.0674667,53 Z M11.9992,53 L11.9992,35.5541667 L16.9299667,30.6216333 L16.9299667,53 L11.9992,53 Z M24.0708333,53 L24.0708333,30.6216333 L28.9291667,35.6283667 L28.9291667,53 L24.0708333,53 Z M36.0700333,53 L36.0700333,35.6283667 L41.0008,30.6958333 L41.0008,53 L36.0700333,53 Z M0,53 L0,47.3325333 L4.93253333,42.4 L4.93253333,53 L0,53 Z"></path>
                </g>
            </g>
        </g>
    </g>
</svg>