<?xml version="1.0" encoding="UTF-8"?><svg version="1.1" width="53px" height="53px" viewBox="0 0 53.0 53.0" xmlns="http://www.w3.org/2000/svg" xmlns:xlink="http://www.w3.org/1999/xlink"><defs><clipPath id="i0"><path d="M1920,0 L1920,1333 L0,1333 L0,0 L1920,0 Z"></path></clipPath><clipPath id="i1"><path d="M26.5,0 C41.1355459,0 53,11.8644541 53,26.5 C53,41.1355459 41.1355459,53 26.5,53 C11.8644541,53 0,41.1355459 0,26.5 C0,11.8644541 11.8644541,0 26.5,0 Z M26.5,5 C14.6258779,5 5,14.6258779 5,26.5 C5,38.3741221 14.6258779,48 26.5,48 C38.3741221,48 48,38.3741221 48,26.5 C48,14.6258779 38.3741221,5 26.5,5 Z M14.5,23 C16.4329966,23 18,24.5670034 18,26.5 C18,28.4329966 16.4329966,30 14.5,30 C12.5670034,30 11,28.4329966 11,26.5 C11,24.5670034 12.5670034,23 14.5,23 Z M26.5,23 C28.4329966,23 30,24.5670034 30,26.5 C30,28.4329966 28.4329966,30 26.5,30 C24.5670034,30 23,28.4329966 23,26.5 C23,24.5670034 24.5670034,23 26.5,23 Z M38.5,23 C40.4329966,23 42,24.5670034 42,26.5 C42,28.4329966 40.4329966,30 38.5,30 C36.5670034,30 35,28.4329966 35,26.5 C35,24.5670034 36.5670034,23 38.5,23 Z"></path></clipPath></defs><g transform="translate(-1336.0 -191.0)"><g clip-path="url(#i0)"><g transform="translate(1332.000000000001 187.0)"><g transform="translate(4.0 4.0)"><g clip-path="url(#i1)"><polygon points="0,0 53,0 53,53 0,53 0,0" stroke="none" fill="#06A0EC"></polygon></g></g></g></g></g></svg>