<?xml version="1.0" encoding="UTF-8"?>
<svg width="53px" height="53px" viewBox="0 0 53 53" version="1.1" xmlns="http://www.w3.org/2000/svg" xmlns:xlink="http://www.w3.org/1999/xlink">
    <title>icon/categories/Other</title>
    <g id="⎋-Style-guide" stroke="none" stroke-width="1" fill="none" fill-rule="evenodd">
        <g id="Style-guide" transform="translate(-1336.000000, -191.000000)">
            <g id="icon/categories/Other" transform="translate(1332.000000, 187.000000)">
                <rect id="Rectangle-Copy-7" x="0" y="0" width="60" height="60"></rect>
                <g id="Other" transform="translate(4.000000, 4.000000)" fill="#07A0EC">
                    <path d="M26.5,0 C41.1355459,0 53,11.8644541 53,26.5 C53,41.1355459 41.1355459,53 26.5,53 C11.8644541,53 0,41.1355459 0,26.5 C0,11.8644541 11.8644541,0 26.5,0 Z M26.5,5 C14.6258779,5 5,14.6258779 5,26.5 C5,38.3741221 14.6258779,48 26.5,48 C38.3741221,48 48,38.3741221 48,26.5 C48,14.6258779 38.3741221,5 26.5,5 Z M14.5,23 C16.4329966,23 18,24.5670034 18,26.5 C18,28.4329966 16.4329966,30 14.5,30 C12.5670034,30 11,28.4329966 11,26.5 C11,24.5670034 12.5670034,23 14.5,23 Z M26.5,23 C28.4329966,23 30,24.5670034 30,26.5 C30,28.4329966 28.4329966,30 26.5,30 C24.5670034,30 23,28.4329966 23,26.5 C23,24.5670034 24.5670034,23 26.5,23 Z M38.5,23 C40.4329966,23 42,24.5670034 42,26.5 C42,28.4329966 40.4329966,30 38.5,30 C36.5670034,30 35,28.4329966 35,26.5 C35,24.5670034 36.5670034,23 38.5,23 Z" id="Shape"></path>
                </g>
            </g>
        </g>
    </g>
</svg>