<?xml version="1.0" encoding="UTF-8"?>
<svg width="60px" height="60px" viewBox="0 0 60 60" version="1.1" xmlns="http://www.w3.org/2000/svg" xmlns:xlink="http://www.w3.org/1999/xlink">
    <title>icon/categories/Photo</title>
    <g id="----Symbols" stroke="none" stroke-width="1" fill="none" fill-rule="evenodd">
        <g id="icon/categories/Photo">
            <rect id="Rectangle-Copy-8" x="0" y="0" width="60" height="60"></rect>
            <g id="movie_FILL0_wght400_GRAD0_opsz40" transform="translate(-0.037549, 5.999773)" fill="#07A0EC" fill-rule="nonzero">
                <path d="M4.94188003,8.30273334e-05 L10.5473262,11.3825961 L19.8395878,11.3825961 L14.2341416,8.30273334e-05 L20.5758889,8.30273334e-05 L26.1813351,11.3825961 L35.5479348,11.3825961 L29.9424886,8.30273334e-05 L36.284236,8.30273334e-05 L41.8896821,11.3825961 L51.2562819,11.3825961 L45.6508357,8.30273334e-05 L54.05812,8.30273334e-05 C55.3672731,-0.00763980394 56.6214574,0.523695213 57.5236911,1.46835659 C58.4733381,2.36625724 59.007637,3.61538169 58.9999175,4.91939322 L58.9999175,42.0806068 C58.9461694,44.7756573 56.7645401,46.9473589 54.05812,46.999917 L4.94188003,46.999917 C3.63272693,47.0076398 2.3785426,46.4763048 1.47630894,45.5316434 C0.526661905,44.6337428 -0.00763703867,43.3846183 8.25033123e-05,42.0806068 L8.25033123e-05,4.91939322 C-0.00763703867,3.61538169 0.526661905,2.36625724 1.47630894,1.46835659 C2.3785426,0.523695213 3.63272693,-0.00763980394 4.94188003,8.30273334e-05 Z M4.94188003,16.2295577 L4.94188003,42.0806068 L54.05812,42.0806068 L54.05812,16.2295577 L4.94188003,16.2295577 Z M4.94188003,16.2295577 L4.94188003,42.0806068 L4.94188003,42.0806068 L4.94188003,16.2295577 Z"></path>
            </g>
        </g>
    </g>
</svg>