<?xml version="1.0" encoding="UTF-8"?>
<svg width="48px" height="59px" viewBox="0 0 48 59" version="1.1" xmlns="http://www.w3.org/2000/svg" xmlns:xlink="http://www.w3.org/1999/xlink">
    <title>icon/categories/Sport</title>
    <g id="⎋-Style-guide" stroke="none" stroke-width="1" fill="none" fill-rule="evenodd">
        <g id="Style-guide" transform="translate(-1437.000000, -188.000000)">
            <g id="icon/categories/Sport" transform="translate(1432.000000, 187.000000)">
                <rect id="Rectangle-Copy-2" x="0" y="0" width="60" height="60"></rect>
                <g id="health_and_safety_FILL0_wght400_GRAD0_opsz40" transform="translate(5.962821, 0.999605)" fill="#07A0EC" fill-rule="nonzero">
                    <path d="M20.0490173,38.9403894 L26.9509827,38.9403894 L26.9509827,31.5647256 L34.2953366,31.5647256 L34.2953366,24.6315663 L26.9509827,24.6315663 L26.9509827,17.2576726 L20.0490173,17.2576726 L20.0490173,24.6315663 L12.7046634,24.6315663 L12.7046634,31.5647256 L20.0490173,31.5647256 L20.0490173,38.9403894 Z M23.5,59 C16.6043212,57.2522994 10.5914277,53.0146812 6.60992475,47.096631 C2.28692481,41.1334578 -0.0285112401,33.9405081 0.000265008835,26.5644256 L0.000265008835,8.86424864 L23.5,0 L46.999735,8.8500885 L46.999735,26.5502655 C47.0285112,33.9263479 44.7130752,41.1192977 40.3900752,47.0824708 C36.4110798,53.0058435 30.3978644,57.2487299 23.5,59 Z M23.5,53.9111991 C28.9869061,52.1017502 33.6992488,48.4745716 36.8650674,43.6238562 C40.3186685,38.6106789 42.1406326,32.6459649 42.0803165,26.5502655 L42.0803165,12.3157832 L23.5,5.23571236 L4.91968348,12.3157832 L4.91968348,26.5502655 C4.85936736,32.6459649 6.68133148,38.6106789 10.1349326,43.6238562 C13.3007512,48.4745716 18.0130939,52.1017502 23.5,53.9111991 Z"></path>
                </g>
            </g>
        </g>
    </g>
</svg>