<?xml version="1.0" encoding="UTF-8"?>
<svg width="46px" height="46px" viewBox="0 0 46 46" version="1.1" xmlns="http://www.w3.org/2000/svg" xmlns:xlink="http://www.w3.org/1999/xlink">
    <title>Button/create_project_new Copy</title>
    <g id="----Symbols" stroke="none" stroke-width="1" fill="none" fill-rule="evenodd">
        <g id="Button/create_project_new-Copy">
            <path d="M23,1.5 C28.9370611,1.5 34.3120611,3.90646947 38.2027958,7.7972042 C42.0935305,11.6879389 44.5,17.0629389 44.5,23 C44.5,28.9370611 42.0935305,34.3120611 38.2027958,38.2027958 C34.3120611,42.0935305 28.9370611,44.5 23,44.5 C17.0629389,44.5 11.6879389,42.0935305 7.7972042,38.2027958 C3.90646947,34.3120611 1.5,28.9370611 1.5,23 C1.5,17.0629389 3.90646947,11.6879389 7.7972042,7.7972042 C11.6879389,3.90646947 17.0629389,1.5 23,1.5 Z" id="Rectangle" stroke="#07A0EC" stroke-width="3" fill="#07A0EC"></path>
            <polygon id="Path" fill="#FFFFFF" points="25 15 25 20.999 31 21 31 25 25 25 25 31 21 31 21 25 15 25 15 21 21 21 21 15"></polygon>
        </g>
    </g>
</svg>