<?xml version="1.0" encoding="UTF-8"?><svg version="1.1" width="46px" height="46px" viewBox="0 0 46.0 46.0" xmlns="http://www.w3.org/2000/svg" xmlns:xlink="http://www.w3.org/1999/xlink"><defs><clipPath id="i0"><path d="M10,0 L10,5.999 L16,6 L16,10 L10,10 L10,16 L6,16 L6,10 L0,10 L0,6 L6,6 L6,0 L10,0 Z"></path></clipPath><clipPath id="i1"><path d="M23,0 C35.7025492,-2.33342044e-15 46,10.2974508 46,23 C46,35.7025492 35.7025492,46 23,46 C10.2974508,46 1.55561363e-15,35.7025492 0,23 C-1.55561363e-15,10.2974508 10.2974508,2.33342044e-15 23,0 Z"></path></clipPath></defs><g transform="translate(15.0 15.0)"><g clip-path="url(#i0)"><polygon points="0,0 16,0 16,16 0,16 0,0" stroke="none" fill="#06A0EC"></polygon></g></g><g clip-path="url(#i1)"><path d="M23,0 C35.7025492,-2.33342044e-15 46,10.2974508 46,23 C46,35.7025492 35.7025492,46 23,46 C10.2974508,46 1.55561363e-15,35.7025492 0,23 C-1.55561363e-15,10.2974508 10.2974508,2.33342044e-15 23,0 Z" stroke="#07A0EC" stroke-width="6" fill="none" stroke-miterlimit="5"></path></g></svg>