<?xml version="1.0" encoding="UTF-8"?>
<svg width="36px" height="36px" viewBox="0 0 36 36" version="1.1" xmlns="http://www.w3.org/2000/svg" xmlns:xlink="http://www.w3.org/1999/xlink">
    <title>Slider_control/hover</title>
    <g id="⎋-Style-guide" stroke="none" stroke-width="1" fill="none" fill-rule="evenodd">
        <g id="Style-guide" transform="translate(-268.000000, -786.000000)">
            <g id="Slider_control/hover" transform="translate(268.000000, 786.000000)">
                <rect id="Rectangle-Copy" fill="#07A0EC" x="0" y="0" width="36" height="36" rx="18"></rect>
                <path d="M10.5952381,12 C11.3749342,12 12.0156868,12.5948881 12.0883715,13.35554 L12.0952381,13.5 L12.0952381,22 L20.5952381,22 C21.4236652,22 22.0952381,22.6715729 22.0952381,23.5 C22.0952381,24.2796961 21.50035,24.9204487 20.7396981,24.9931334 L20.5952381,25 L10.5952381,25 C9.81554198,25 9.17478942,24.4051119 9.10210467,23.64446 L9.0952381,23.5 L9.0952381,13.5 C9.0952381,12.6715729 9.76681097,12 10.5952381,12 Z" id="Path" fill="#FFFFFF" fill-rule="nonzero" transform="translate(15.595238, 18.500000) rotate(-135.000000) translate(-15.595238, -18.500000) "></path>
            </g>
        </g>
    </g>
</svg>