<?xml version="1.0" encoding="UTF-8"?><svg version="1.1" width="36px" height="36px" viewBox="0 0 36.0 36.0" xmlns="http://www.w3.org/2000/svg" xmlns:xlink="http://www.w3.org/1999/xlink"><defs><clipPath id="i0"><path d="M18,0 C27.9411255,-1.82615513e-15 36,8.0588745 36,18 C36,27.9411255 27.9411255,36 18,36 C8.0588745,36 1.21743675e-15,27.9411255 0,18 C-1.21743675e-15,8.0588745 8.0588745,1.82615513e-15 18,0 Z"></path></clipPath><clipPath id="i1"><path d="M1.5,0 C2.27969612,0 2.92044868,0.594888083 2.99313342,1.35553999 L3,1.5 L3,10 L11.5,10 C12.3284271,10 13,10.6715729 13,11.5 C13,12.2796961 12.4051119,12.9204487 11.64446,12.9931334 L11.5,13 L1.5,13 C0.720303883,13 0.0795513218,12.4051119 0.00686657806,11.64446 L0,11.5 L0,1.5 C0,0.671572875 0.671572875,0 1.5,0 Z"></path></clipPath></defs><g clip-path="url(#i0)"><polygon points="0,0 36,0 36,36 0,36 0,0" stroke="none" fill="#06A0EC"></polygon></g><g transform="translate(15.595238095239665 27.692388155423757) rotate(-135.0)"><g clip-path="url(#i1)"><polygon points="0,0 13,0 13,13 0,13 0,0" stroke="none" fill="#FFFFFF"></polygon></g></g></svg>