<?xml version="1.0" encoding="UTF-8"?><svg version="1.1" width="29px" height="29px" viewBox="0 0 29.0 29.0" xmlns="http://www.w3.org/2000/svg" xmlns:xlink="http://www.w3.org/1999/xlink"><defs><clipPath id="i0"><path d="M1920,0 L1920,1333 L0,1333 L0,0 L1920,0 Z"></path></clipPath><clipPath id="i1"><path d="M20.4897083,0.090625 C21.6920469,0.117049309 22.8814372,0.34496131 24.008375,0.764875 C24.9741224,1.13081865 25.8495417,1.70083038 26.574875,2.436 C27.3161576,3.1598678 27.8887947,4.03821384 28.2520417,5.00854167 C28.6745032,6.13476463 28.9024989,7.32459212 28.9262917,8.52720833 C28.9385947,8.80644318 28.9488605,9.05152514 28.9574233,9.28928991 L28.9690318,9.64380366 L28.9754753,9.88398765 C28.9913586,10.535202 28.9971107,11.2934096 28.9990667,12.6674949 L28.9999818,14.1516627 C28.9999945,14.2647068 29,14.3807778 29,14.5 L28.9999557,14.8439088 L28.9992409,15.7718062 C28.9965994,17.6705892 28.9865204,18.5304819 28.9606652,19.3351781 L28.952427,19.5759147 C28.9422441,19.8571375 28.9300265,20.143649 28.9154167,20.477625 C28.8895888,21.679634 28.6616558,22.8687256 28.2411667,23.9950833 C27.4850689,25.9430716 25.9444951,27.4832069 23.9962917,28.23875 C22.8696334,28.6596615 21.6800727,28.8876061 20.477625,28.913 C19.0897626,28.9756503 18.5202792,28.9953753 15.7702617,28.9992366 L14.8434827,28.9999556 C14.7319911,28.9999856 14.6175379,29 14.5,29 L14.1565141,28.9999557 L13.2296915,28.9992409 C11.4278179,28.9967315 10.5616856,28.9875097 9.78859213,28.9644262 L9.54656717,28.9566675 C9.2253698,28.945686 8.90494066,28.9321136 8.522375,28.9154167 C7.31999527,28.8893804 6.13054093,28.6614561 5.00370833,28.2411667 C4.03802782,27.874394 3.16238063,27.3045022 2.436,26.5700417 C1.69705862,25.8442542 1.12478145,24.9664602 0.758833333,23.9975 C0.337362262,22.8714178 0.109396932,21.6821578 0.0845833333,20.4800417 C0.0240568182,19.0921793 0.00458922559,18.5217627 0.000759087663,15.7706989 L0.000816651362,13.2187234 C0.00351515152,11.4022348 0.0134237068,10.5342811 0.0381529308,9.76823926 L0.0464636899,9.5287315 C0.0582252449,9.21127146 0.0727563131,8.89607955 0.090625,8.51995833 C0.116567452,7.31796143 0.344496863,6.12888882 0.764875,5.0025 C1.13088671,4.03678716 1.7008895,3.16138156 2.436,2.436 C3.16049721,1.69548427 4.03866157,1.12296566 5.00854167,0.758833333 C6.13530469,0.336802309 7.32545469,0.108823009 8.52841667,0.0845833333 C8.86316162,0.0699734848 9.15027893,0.0577558923 9.43194446,0.0475730352 L9.79440179,0.0355738283 C10.5672653,0.0124902804 11.4331312,0.00326848837 13.2353939,0.000759087663 L15.7827847,0.000816651362 C18.5461347,0.00493541475 19.1124646,0.0258510101 20.4897083,0.090625 Z M14.5060417,7.05304167 C10.3866136,7.0577124 7.05552876,10.3954674 7.05908366,14.508855 C7.06264426,18.6222425 10.3994979,21.9542303 14.5128862,21.9517869 C18.6262746,21.9493408 21.9591651,18.6133889 21.9578337,14.5 C21.951174,10.3880334 18.6180118,7.05703301 14.5060417,7.05304167 Z M14.5060417,9.66666667 C17.175418,9.66666667 19.339375,11.8306237 19.339375,14.5 C19.339375,15.7818797 18.8301503,17.0112569 17.9237244,17.9176828 C17.0172986,18.8241086 15.7879214,19.3333333 14.5060417,19.3333333 C11.8366654,19.3333333 9.67270833,17.1693763 9.67270833,14.5 C9.67270833,11.8306237 11.8366654,9.66666667 14.5060417,9.66666667 Z M22.246625,5.01820833 C21.2864742,5.01820833 20.5080561,5.79644675 20.5078338,6.7565975 C20.5076115,7.71674825 21.2856693,8.49534673 22.24582,8.49579167 C23.2059707,8.49623623 23.9847494,7.71835888 23.9854167,6.75820833 C23.9840991,5.800802 23.2100626,5.02406659 22.2526667,5.01941667 Z"></path></clipPath><linearGradient id="i2" x1="14.5px" y1="0px" x2="14.5px" y2="29px" gradientUnits="userSpaceOnUse"><stop stop-color="#C936E8" offset="0%"></stop><stop stop-color="#FE5C01" offset="100%"></stop></linearGradient></defs><g transform="translate(-264.0 -412.0)"><g clip-path="url(#i0)"><g transform="translate(258.0000000000009 406.0)"><g transform="translate(6.0 6.0)"><g clip-path="url(#i1)"><polygon points="0,0 29,0 29,29 0,29 0,0" stroke="none" fill="url(#i2)"></polygon></g></g></g></g></g></svg>