<?xml version="1.0" encoding="UTF-8"?><svg version="1.1" width="36px" height="29px" viewBox="0 0 36.0 29.0" xmlns="http://www.w3.org/2000/svg" xmlns:xlink="http://www.w3.org/1999/xlink"><defs><clipPath id="i0"><path d="M1920,0 L1920,1333 L0,1333 L0,0 L1920,0 Z"></path></clipPath><clipPath id="i1"><path d="M22.2131209,0.513664069 C25.0311405,-0.592060557 28.2445627,0.122863085 30.3157895,2.31634949 C31.96614,1.99483298 33.5488609,1.39582567 34.9954887,0.545238751 C34.4487188,2.24212384 33.2929872,3.68116079 31.7473684,4.58957312 C33.213528,4.40876055 34.6457761,4.01953303 36,3.43387863 C35.0102026,4.91293415 33.7566084,6.20061599 32.3007519,7.23371623 C32.316391,7.54380969 32.327218,7.85628849 32.327218,8.17950129 C32.327218,17.8472613 24.9022556,29 11.3215038,29 C7.30696014,29.0127759 3.37462141,27.8723363 0,25.7164793 C0.587027648,25.7885697 1.17811758,25.8232283 1.76962406,25.8202414 C5.0862817,25.8236717 8.30836547,24.7247214 10.9209023,22.6990314 C7.76519397,22.619779 5.00241114,20.5774486 4.02526316,17.6015719 C4.48515611,17.6909373 4.95342175,17.7309236 5.42195489,17.7208386 C6.07457849,17.7266402 6.72508535,17.6464269 7.35639098,17.4823052 C3.91643547,16.7770982 1.44778066,13.7754416 1.44360902,10.2929075 L1.44360902,10.2129988 C2.46473631,10.773586 3.60674333,11.0828116 4.77353383,11.1146552 C1.52726853,8.96260063 0.533377118,4.67620397 2.50586466,1.33478442 C6.24621372,5.91899727 11.7801273,8.70533465 17.7203008,8.99528563 C17.6008115,8.44675197 17.5435137,7.88670002 17.5494737,7.3255516 C17.5455541,4.32090243 19.3951013,1.61938869 22.2131209,0.513664069 Z"></path></clipPath></defs><g transform="translate(-420.0 -327.0)"><g clip-path="url(#i0)"><g transform="translate(418.0 321.0)"><g transform="translate(2.0 6.0)"><g clip-path="url(#i1)"><polygon points="0,3.55271368e-15 36,3.55271368e-15 36,29.0001062 0,29.0001062 0,3.55271368e-15" stroke="none" fill="#355869"></polygon></g></g></g></g></g></svg>